<?xml version="1.0" encoding="UTF-8" standalone="no"?>
<!DOCTYPE svg PUBLIC "-//W3C//DTD SVG 1.1//EN" "http://www.w3.org/Graphics/SVG/1.1/DTD/svg11.dtd">
<svg width="100%" height="100%" viewBox="0 0 638 1111" version="1.1" xmlns="http://www.w3.org/2000/svg" xmlns:xlink="http://www.w3.org/1999/xlink" xml:space="preserve" xmlns:serif="http://www.serif.com/" style="fill-rule:evenodd;clip-rule:evenodd;stroke-linejoin:round;stroke-miterlimit:1.5;">
    <g transform="matrix(1,0,0,1,-3714,0)">
        <g id="Artboard4" transform="matrix(1,0,0,1,-0.22409,0)">
            <rect x="3714.224" y="0" width="637.795" height="1110.236" style="fill:none;"/>
            <clipPath id="_clip1">
                <rect x="3714.224" y="0" width="637.795" height="1110.236"/>
            </clipPath>
            <g clip-path="url(#_clip1)">
                <g transform="matrix(1,0,0,1,0.22409,0)">
                    <rect x="3714" y="0" width="637.795" height="1110.236" style="fill:rgb(91,117,49);"/>
                </g>
                <g transform="matrix(4.928885,0,0,4.928885,-1249.326082,-3371.955696)">
                    <path d="M1023.478,720.957C1023.426,725.605 1023.214,738.013 1022.348,758.861C1021.831,771.292 1020.455,782.518 1019.444,789.471C1030.897,790.917 1057.648,794.22 1100.783,799.134C1102.292,782.998 1103.686,755.791 1103.364,741.81L1059.45,745.317L1058.416,761.195C1066.277,759.463 1072.834,754.862 1073.223,754.654C1078.354,751.906 1084.75,753.842 1087.497,758.972C1090.245,764.103 1088.31,770.5 1083.179,773.247C1082.361,773.686 1063.435,785.174 1046.251,782.427L1043.506,781.6L1040.576,779.636L1038.145,776.284C1037.746,775.443 1037.283,774.18 1037.028,772.476C1036.046,765.928 1039.034,734.474 1039.034,734.474C1039.53,729.598 1043.321,725.707 1048.182,725.083C1048.182,725.083 1087.81,720.031 1105.184,720.098C1110.546,720.118 1114.485,720.87 1116.336,721.654L1119.099,723.256L1121.382,725.601L1123.302,729.674C1123.79,731.423 1124.238,734.964 1124.377,739.762C1124.914,758.225 1122.411,800.59 1120.412,812.535C1119.486,818.064 1114.397,821.903 1108.827,821.273C1055.773,815.278 1028.883,812.641 1016.07,810.701C1008.273,809.52 1004.27,808.042 1002.464,806.922L999.205,803.805L997.888,801.213L997.279,798.604C997.14,797.471 997.135,795.582 997.48,792.954C998.194,787.511 1000.532,775.873 1001.275,757.985C1002.327,732.662 1001.897,721.828 1002.52,716.657C1003.004,712.648 1004.113,710.214 1005.389,708.374C1006.924,706.16 1008.866,704.528 1011.899,703.094C1045.65,687.139 1069.254,679.752 1073.419,678.139C1078.846,676.036 1084.959,678.736 1087.062,684.163C1089.164,689.591 1086.464,695.704 1081.037,697.806C1077.073,699.341 1055.085,706.2 1023.478,720.957Z" style="fill:rgb(250,247,234);fill-opacity:0.2;"/>
                </g>
                <g>
                    <g transform="matrix(0.532591,0,0,0.532591,1839.79163,446.726997)">
                        <path d="M4018.242,809.96C3995.822,809.246 3974.044,808.817 3952.91,808.674L3952.91,920.489L3899.359,920.489L3899.359,808.674C3878.081,808.817 3856.375,809.246 3834.241,809.96L3834.241,764.977L4018.242,764.977L4018.242,809.96Z" style="fill:rgb(250,247,234);"/>
                        <path d="M4115.704,922.631C4083.003,922.631 4058.94,915.526 4043.518,901.317C4028.095,887.109 4020.384,867.152 4020.384,841.448C4020.384,816.029 4028.059,796.179 4043.411,781.899C4058.762,767.619 4082.86,760.479 4115.704,760.479C4148.692,760.479 4172.861,767.619 4188.212,781.899C4203.563,796.179 4211.239,816.029 4211.239,841.448C4211.239,867.295 4203.599,887.287 4188.319,901.424C4173.039,915.562 4148.834,922.631 4115.704,922.631ZM4115.704,878.933C4131.555,878.933 4142.98,875.899 4149.977,869.829C4156.974,863.76 4160.473,854.3 4160.473,841.448C4160.473,828.881 4156.974,819.527 4149.977,813.387C4142.98,807.246 4131.555,804.176 4115.704,804.176C4099.996,804.176 4088.643,807.246 4081.646,813.387C4074.649,819.527 4071.15,828.881 4071.15,841.448C4071.15,854.157 4074.649,863.582 4081.646,869.722C4088.643,875.863 4099.996,878.933 4115.704,878.933Z" style="fill:rgb(250,247,234);"/>
                        <path d="M4329.479,920.489C4322.768,908.35 4311.629,889.786 4296.064,864.796L4271.002,889.643L4271.002,920.489L4217.665,920.489C4218.808,892.785 4219.379,866.866 4219.379,842.733C4219.379,818.599 4218.808,792.681 4217.665,764.977L4271.002,764.977L4271.002,827.739C4297.277,801.749 4315.984,780.828 4327.123,764.977L4396.525,764.977L4329.051,831.808C4339.047,845.803 4350.293,861.011 4362.788,877.434C4375.283,893.856 4386.6,908.208 4396.739,920.489L4329.479,920.489Z" style="fill:rgb(250,247,234);"/>
                        <path d="M4529.974,764.763L4583.096,764.763L4583.096,850.016C4582.811,871.008 4575.635,888.358 4561.569,902.067C4547.503,915.776 4523.833,922.631 4490.56,922.631C4456.859,922.631 4433.796,916.097 4421.373,903.031C4408.949,889.965 4402.88,872.793 4403.165,851.515L4403.165,764.763L4456.288,764.763L4456.288,848.088C4456.288,854.371 4456.752,859.476 4457.68,863.403C4458.608,867.33 4461.607,871.008 4466.677,874.435C4471.746,877.862 4479.921,879.576 4491.203,879.576C4503.484,879.576 4512.48,877.826 4518.192,874.328C4523.905,870.829 4527.296,866.938 4528.367,862.654C4529.438,858.37 4529.974,852.872 4529.974,846.16L4529.974,764.763Z" style="fill:rgb(250,247,234);"/>
                    </g>
                    <g transform="matrix(0.333737,0,0,0.333737,2751.947095,693.469938)">
                        <path d="M4154.219,895.67L4154.219,920.489L4146.91,920.489L4146.91,895.67L4143.791,895.67L4143.791,888.848L4146.91,888.848L4146.91,877.251L4154.219,877.251L4154.219,888.848L4159.904,888.848L4159.904,895.67L4154.219,895.67Z" style="fill:rgb(250,247,234);"/>
                        <path d="M4163.835,904.441C4163.835,899.871 4165.47,895.984 4168.74,892.779C4172.01,889.574 4175.995,887.971 4180.695,887.971C4185.416,887.971 4189.422,889.584 4192.714,892.811C4195.963,896.038 4197.587,900.001 4197.587,904.701C4197.587,909.444 4195.952,913.418 4192.682,916.623C4189.39,919.806 4185.351,921.398 4180.565,921.398C4175.822,921.398 4171.848,919.774 4168.643,916.525C4165.437,913.32 4163.835,909.292 4163.835,904.441ZM4171.306,904.571C4171.306,907.733 4172.151,910.234 4173.84,912.075C4175.573,913.937 4177.858,914.869 4180.695,914.869C4183.553,914.869 4185.838,913.948 4187.549,912.107C4189.26,910.267 4190.115,907.809 4190.115,904.733C4190.115,901.658 4189.26,899.2 4187.549,897.359C4185.816,895.497 4183.532,894.565 4180.695,894.565C4177.901,894.565 4175.638,895.497 4173.905,897.359C4172.173,899.222 4171.306,901.626 4171.306,904.571Z" style="fill:rgb(250,247,234);"/>
                        <path d="M4212.627,865.621L4212.627,899.081L4222.925,888.848L4232.736,888.848L4218.995,902.134L4233.743,920.489L4224.257,920.489L4213.797,907.137L4212.627,908.307L4212.627,920.489L4205.318,920.489L4205.318,865.621L4212.627,865.621Z" style="fill:rgb(250,247,234);"/>
                        <path d="M4245.957,888.848L4245.957,907.007C4245.957,912.248 4248.025,914.869 4252.162,914.869C4256.298,914.869 4258.367,912.248 4258.367,907.007L4258.367,888.848L4265.676,888.848L4265.676,907.17C4265.676,909.704 4265.362,911.891 4264.734,913.732C4264.127,915.378 4263.077,916.861 4261.583,918.182C4259.114,920.326 4255.973,921.398 4252.162,921.398C4248.372,921.398 4245.243,920.326 4242.774,918.182C4241.258,916.861 4240.186,915.378 4239.558,913.732C4238.951,912.259 4238.648,910.072 4238.648,907.17L4238.648,888.848L4245.957,888.848Z" style="fill:rgb(250,247,234);"/>
                        <path d="M4276.038,916.85C4276.038,915.637 4276.482,914.587 4277.37,913.699C4278.258,912.811 4279.319,912.367 4280.554,912.367C4281.788,912.367 4282.85,912.811 4283.737,913.699C4284.625,914.587 4285.069,915.648 4285.069,916.883C4285.069,918.139 4284.625,919.211 4283.737,920.099C4282.871,920.965 4281.81,921.398 4280.554,921.398C4279.276,921.398 4278.204,920.965 4277.338,920.099C4276.472,919.232 4276.038,918.15 4276.038,916.85Z" style="fill:rgb(250,247,234);"/>
                        <path d="M4313.819,894.241L4307.776,897.457C4306.824,895.508 4305.643,894.533 4304.236,894.533C4303.564,894.533 4302.99,894.755 4302.514,895.199C4302.037,895.643 4301.799,896.211 4301.799,896.904C4301.799,898.117 4303.207,899.319 4306.022,900.51C4309.899,902.178 4312.508,903.715 4313.851,905.123C4315.194,906.531 4315.865,908.426 4315.865,910.808C4315.865,913.862 4314.739,916.417 4312.487,918.475C4310.3,920.424 4307.657,921.398 4304.56,921.398C4299.255,921.398 4295.497,918.81 4293.288,913.634L4299.525,910.743C4300.392,912.259 4301.052,913.223 4301.507,913.634C4302.395,914.457 4303.456,914.869 4304.69,914.869C4307.159,914.869 4308.394,913.743 4308.394,911.49C4308.394,910.191 4307.441,908.978 4305.535,907.852C4304.799,907.484 4304.062,907.126 4303.326,906.78C4302.59,906.433 4301.843,906.076 4301.085,905.708C4298.962,904.668 4297.468,903.629 4296.602,902.589C4295.497,901.268 4294.945,899.568 4294.945,897.489C4294.945,894.739 4295.887,892.465 4297.771,890.667C4299.699,888.87 4302.037,887.971 4304.788,887.971C4308.838,887.971 4311.848,890.061 4313.819,894.241Z" style="fill:rgb(250,247,234);"/>
                        <path d="M4322.427,865.621L4329.736,865.621L4329.736,891.479C4332.335,889.14 4335.205,887.971 4338.345,887.971C4341.918,887.971 4344.777,889.13 4346.921,891.447C4348.74,893.461 4349.65,896.677 4349.65,901.095L4349.65,920.489L4342.341,920.489L4342.341,901.777C4342.341,899.243 4341.891,897.408 4340.993,896.271C4340.094,895.134 4338.648,894.565 4336.656,894.565C4334.1,894.565 4332.303,895.356 4331.263,896.937C4330.245,898.539 4329.736,901.29 4329.736,905.188L4329.736,920.489L4322.427,920.489L4322.427,865.621Z" style="fill:rgb(250,247,234);"/>
                        <path d="M4366.445,895.67L4366.445,920.489L4359.136,920.489L4359.136,895.67L4356.017,895.67L4356.017,888.848L4359.136,888.848L4359.136,877.251L4366.445,877.251L4366.445,888.848L4372.13,888.848L4372.13,895.67L4366.445,895.67Z" style="fill:rgb(250,247,234);"/>
                        <path d="M4406.499,906.39L4383.824,906.39C4384.019,908.989 4384.864,911.057 4386.358,912.595C4387.852,914.111 4389.769,914.869 4392.108,914.869C4393.927,914.869 4395.432,914.436 4396.623,913.569C4397.793,912.703 4399.125,911.1 4400.619,908.761L4406.791,912.205C4405.838,913.829 4404.831,915.221 4403.77,916.379C4402.709,917.538 4401.572,918.491 4400.359,919.238C4399.146,919.985 4397.836,920.532 4396.428,920.878C4395.021,921.225 4393.494,921.398 4391.848,921.398C4387.127,921.398 4383.337,919.882 4380.478,916.85C4377.62,913.797 4376.19,909.747 4376.19,904.701C4376.19,899.698 4377.576,895.648 4380.348,892.551C4383.142,889.498 4386.845,887.971 4391.458,887.971C4396.114,887.971 4399.796,889.454 4402.503,892.421C4405.189,895.367 4406.531,899.449 4406.531,904.668L4406.499,906.39ZM4398.995,900.413C4397.977,896.515 4395.519,894.565 4391.621,894.565C4390.733,894.565 4389.899,894.701 4389.119,894.971C4388.34,895.242 4387.63,895.632 4386.992,896.141C4386.353,896.65 4385.806,897.262 4385.351,897.976C4384.896,898.691 4384.55,899.503 4384.312,900.413L4398.995,900.413Z" style="fill:rgb(250,247,234);"/>
                        <rect x="4414.49" y="865.621" width="7.309" height="54.867" style="fill:rgb(250,247,234);"/>
                        <path d="M4429.563,904.441C4429.563,899.871 4431.198,895.984 4434.469,892.779C4437.739,889.574 4441.724,887.971 4446.423,887.971C4451.144,887.971 4455.151,889.584 4458.443,892.811C4461.691,896.038 4463.315,900.001 4463.315,904.701C4463.315,909.444 4461.68,913.418 4458.41,916.623C4455.118,919.806 4451.079,921.398 4446.293,921.398C4441.55,921.398 4437.576,919.774 4434.371,916.525C4431.166,913.32 4429.563,909.292 4429.563,904.441ZM4437.035,904.571C4437.035,907.733 4437.88,910.234 4439.569,912.075C4441.301,913.937 4443.586,914.869 4446.423,914.869C4449.282,914.869 4451.567,913.948 4453.277,912.107C4454.988,910.267 4455.844,907.809 4455.844,904.733C4455.844,901.658 4454.988,899.2 4453.277,897.359C4451.545,895.497 4449.26,894.565 4446.423,894.565C4443.629,894.565 4441.366,895.497 4439.634,897.359C4437.901,899.222 4437.035,901.626 4437.035,904.571Z" style="fill:rgb(250,247,234);"/>
                        <path d="M4472.184,916.85C4472.184,915.637 4472.628,914.587 4473.516,913.699C4474.404,912.811 4475.465,912.367 4476.699,912.367C4477.934,912.367 4478.995,912.811 4479.883,913.699C4480.771,914.587 4481.215,915.648 4481.215,916.883C4481.215,918.139 4480.771,919.211 4479.883,920.099C4479.017,920.965 4477.955,921.398 4476.699,921.398C4475.422,921.398 4474.35,920.965 4473.483,920.099C4472.617,919.232 4472.184,918.15 4472.184,916.85Z" style="fill:rgb(250,247,234);"/>
                        <path d="M4490.083,904.441C4490.083,899.871 4491.718,895.984 4494.988,892.779C4498.259,889.574 4502.243,887.971 4506.943,887.971C4511.664,887.971 4515.671,889.584 4518.962,892.811C4522.211,896.038 4523.835,900.001 4523.835,904.701C4523.835,909.444 4522.2,913.418 4518.93,916.623C4515.638,919.806 4511.599,921.398 4506.813,921.398C4502.07,921.398 4498.096,919.774 4494.891,916.525C4491.686,913.32 4490.083,909.292 4490.083,904.441ZM4497.555,904.571C4497.555,907.733 4498.399,910.234 4500.089,912.075C4501.821,913.937 4504.106,914.869 4506.943,914.869C4509.802,914.869 4512.086,913.948 4513.797,912.107C4515.508,910.267 4516.364,907.809 4516.364,904.733C4516.364,901.658 4515.508,899.2 4513.797,897.359C4512.065,895.497 4509.78,894.565 4506.943,894.565C4504.149,894.565 4501.886,895.497 4500.154,897.359C4498.421,899.222 4497.555,901.626 4497.555,904.571Z" style="fill:rgb(250,247,234);"/>
                        <path d="M4531.567,888.848L4538.876,888.848L4538.876,891.674C4540.219,890.267 4541.41,889.303 4542.449,888.783C4543.51,888.242 4544.767,887.971 4546.218,887.971C4548.145,887.971 4550.159,888.599 4552.26,889.855L4548.914,896.547C4547.528,895.551 4546.174,895.053 4544.853,895.053C4540.868,895.053 4538.876,898.063 4538.876,904.084L4538.876,920.489L4531.567,920.489L4531.567,888.848Z" style="fill:rgb(250,247,234);"/>
                        <path d="M4587.051,919.741C4587.051,921.236 4587.003,922.551 4586.905,923.688C4586.808,924.825 4586.672,925.827 4586.499,926.693C4585.979,929.075 4584.961,931.122 4583.446,932.833C4580.587,936.125 4576.656,937.771 4571.653,937.771C4567.43,937.771 4563.954,936.634 4561.226,934.36C4558.41,932.021 4556.786,928.783 4556.353,924.647L4563.695,924.647C4563.976,926.206 4564.442,927.408 4565.091,928.253C4566.607,930.223 4568.816,931.209 4571.718,931.209C4577.068,931.209 4579.742,927.928 4579.742,921.366L4579.742,916.948C4576.84,919.915 4573.494,921.398 4569.704,921.398C4565.395,921.398 4561.865,919.839 4559.114,916.72C4556.342,913.558 4554.956,909.606 4554.956,904.863C4554.956,900.25 4556.245,896.33 4558.822,893.104C4561.594,889.682 4565.254,887.971 4569.802,887.971C4573.787,887.971 4577.1,889.454 4579.742,892.421L4579.742,888.848L4587.051,888.848L4587.051,919.741ZM4580.035,904.733C4580.035,901.658 4579.212,899.2 4577.566,897.359C4575.898,895.475 4573.765,894.533 4571.166,894.533C4568.394,894.533 4566.207,895.562 4564.604,897.619C4563.153,899.46 4562.428,901.842 4562.428,904.766C4562.428,907.646 4563.153,910.007 4564.604,911.848C4566.185,913.862 4568.372,914.869 4571.166,914.869C4573.96,914.869 4576.169,913.851 4577.793,911.815C4579.287,909.974 4580.035,907.614 4580.035,904.733Z" style="fill:rgb(250,247,234);"/>
                    </g>
                    <g transform="matrix(0.333737,0,0,0.333737,2563.524931,693.469938)">
                        <path d="M4500.771,870.332L4507.3,870.332L4510.711,893.623L4511.263,897.067C4511.523,898.929 4511.718,900.629 4511.848,902.167L4512.206,906.423C4512.227,906.531 4512.249,906.726 4512.271,907.007C4512.292,907.289 4512.325,907.646 4512.368,908.079L4512.53,906.455C4512.79,903.618 4513.066,901.008 4513.359,898.626C4513.651,896.244 4513.971,894.046 4514.317,892.032L4517.923,870.332L4523.121,870.332L4526.499,891.414C4526.997,894.533 4527.414,897.424 4527.75,900.088C4528.085,902.752 4528.362,905.296 4528.578,907.722C4528.795,905.166 4529.038,902.698 4529.309,900.315C4529.58,897.933 4529.867,895.594 4530.17,893.299L4530.657,889.953L4533.548,870.332L4540.013,870.332L4531.144,920.489L4525.882,920.489L4522.341,898.821C4522.319,898.734 4522.265,898.377 4522.179,897.749C4522.092,897.121 4521.962,896.222 4521.789,895.053L4521.106,890.05C4521.063,889.66 4520.993,889.075 4520.895,888.296C4520.798,887.516 4520.695,886.531 4520.587,885.34L4520.424,883.261C4520.381,883.759 4520.338,884.192 4520.294,884.56C4520.251,884.928 4520.219,885.231 4520.197,885.47C4520.089,886.899 4519.997,888.009 4519.921,888.799C4519.845,889.59 4519.796,890.072 4519.775,890.245L4519.092,895.053C4518.941,896.157 4518.822,897.023 4518.735,897.652C4518.648,898.28 4518.583,898.669 4518.54,898.821L4514.869,920.489L4509.444,920.489L4500.771,870.332Z" style="fill:rgb(250,247,234);fill-opacity:0.5;"/>
                        <path d="M4543.976,870.332L4561.94,870.332L4561.94,876.049L4550.733,876.049L4550.733,891.934L4560.673,891.934L4560.673,897.652L4550.733,897.652L4550.733,914.771L4561.94,914.771L4561.94,920.489L4543.976,920.489L4543.976,870.332Z" style="fill:rgb(250,247,234);fill-opacity:0.5;"/>
                        <path d="M4568.145,870.332L4577.306,870.332C4584.474,870.332 4588.058,874.782 4588.058,883.683C4588.058,887.083 4587.593,889.606 4586.662,891.252C4585.73,892.898 4584.084,894.143 4581.724,894.988C4584.431,896.071 4586.283,897.457 4587.279,899.146C4588.297,900.813 4588.806,903.326 4588.806,906.682C4588.806,915.887 4584.864,920.489 4576.981,920.489L4568.145,920.489L4568.145,870.332ZM4574.512,892.421C4577.133,892.421 4578.952,891.815 4579.97,890.602C4580.987,889.324 4581.496,887.083 4581.496,883.878C4581.496,878.464 4579.547,875.757 4575.649,875.757L4574.837,875.757C4574.664,875.757 4574.555,875.767 4574.512,875.789L4574.512,892.421ZM4574.512,914.706C4577.284,914.706 4579.201,914.111 4580.262,912.92C4581.323,911.728 4581.854,909.574 4581.854,906.455C4581.854,903.25 4581.301,901.008 4580.197,899.731C4579.114,898.431 4577.219,897.781 4574.512,897.781L4574.512,914.706Z" style="fill:rgb(250,247,234);fill-opacity:0.5;"/>
                    </g>
                    <g transform="matrix(0.333737,0,0,0.333737,2751.947095,729.504678)">
                        <path d="M4328.372,895.67L4328.372,920.489L4321.03,920.489L4321.03,895.67L4318.432,895.67L4318.432,888.848L4321.03,888.848L4321.03,876.634C4321.03,872.649 4321.723,869.833 4323.109,868.187C4325.015,865.892 4327.787,864.744 4331.426,864.744C4332.725,864.744 4334.36,865.123 4336.331,865.881L4336.331,873.353L4335.584,872.963C4334.003,872.162 4332.703,871.761 4331.686,871.761C4330.386,871.761 4329.509,872.226 4329.054,873.158C4328.599,874.067 4328.372,875.822 4328.372,878.42L4328.372,888.848L4336.331,888.848L4336.331,895.67L4328.372,895.67Z" style="fill:rgb(250,247,234);"/>
                        <path d="M4347.863,888.848L4347.863,907.007C4347.863,912.248 4349.931,914.869 4354.068,914.869C4358.204,914.869 4360.272,912.248 4360.272,907.007L4360.272,888.848L4367.582,888.848L4367.582,907.17C4367.582,909.704 4367.268,911.891 4366.64,913.732C4366.033,915.378 4364.983,916.861 4363.489,918.182C4361.02,920.326 4357.879,921.398 4354.068,921.398C4350.278,921.398 4347.148,920.326 4344.68,918.182C4343.164,916.861 4342.092,915.378 4341.464,913.732C4340.857,912.259 4340.554,910.072 4340.554,907.17L4340.554,888.848L4347.863,888.848Z" style="fill:rgb(250,247,234);"/>
                        <path d="M4376.807,888.848L4384.117,888.848L4384.117,891.674C4385.459,890.267 4386.65,889.303 4387.69,888.783C4388.751,888.242 4390.007,887.971 4391.458,887.971C4393.386,887.971 4395.4,888.599 4397.5,889.855L4394.155,896.547C4392.768,895.551 4391.415,895.053 4390.094,895.053C4386.109,895.053 4384.117,898.063 4384.117,904.084L4384.117,920.489L4376.807,920.489L4376.807,888.848Z" style="fill:rgb(250,247,234);"/>
                        <path d="M4411.632,895.67L4411.632,920.489L4404.322,920.489L4404.322,895.67L4401.204,895.67L4401.204,888.848L4404.322,888.848L4404.322,877.251L4411.632,877.251L4411.632,888.848L4417.316,888.848L4417.316,895.67L4411.632,895.67Z" style="fill:rgb(250,247,234);"/>
                        <path d="M4421.247,904.441C4421.247,899.871 4422.882,895.984 4426.152,892.779C4429.423,889.574 4433.407,887.971 4438.107,887.971C4442.828,887.971 4446.835,889.584 4450.126,892.811C4453.375,896.038 4454.999,900.001 4454.999,904.701C4454.999,909.444 4453.364,913.418 4450.094,916.623C4446.802,919.806 4442.763,921.398 4437.977,921.398C4433.234,921.398 4429.26,919.774 4426.055,916.525C4422.85,913.32 4421.247,909.292 4421.247,904.441ZM4428.719,904.571C4428.719,907.733 4429.563,910.234 4431.253,912.075C4432.985,913.937 4435.27,914.869 4438.107,914.869C4440.966,914.869 4443.25,913.948 4444.961,912.107C4446.672,910.267 4447.528,907.809 4447.528,904.733C4447.528,901.658 4446.672,899.2 4444.961,897.359C4443.229,895.497 4440.944,894.565 4438.107,894.565C4435.313,894.565 4433.05,895.497 4431.318,897.359C4429.585,899.222 4428.719,901.626 4428.719,904.571Z" style="fill:rgb(250,247,234);"/>
                        <path d="M4470.04,865.621L4470.04,899.081L4480.338,888.848L4490.148,888.848L4476.407,902.134L4491.155,920.489L4481.67,920.489L4471.209,907.137L4470.04,908.307L4470.04,920.489L4462.731,920.489L4462.731,865.621L4470.04,865.621Z" style="fill:rgb(250,247,234);"/>
                        <path d="M4503.37,888.848L4503.37,907.007C4503.37,912.248 4505.438,914.869 4509.574,914.869C4513.711,914.869 4515.779,912.248 4515.779,907.007L4515.779,888.848L4523.088,888.848L4523.088,907.17C4523.088,909.704 4522.774,911.891 4522.146,913.732C4521.54,915.378 4520.489,916.861 4518.995,918.182C4516.526,920.326 4513.386,921.398 4509.574,921.398C4505.784,921.398 4502.655,920.326 4500.186,918.182C4498.67,916.861 4497.598,915.378 4496.97,913.732C4496.364,912.259 4496.06,910.072 4496.06,907.17L4496.06,888.848L4503.37,888.848Z" style="fill:rgb(250,247,234);"/>
                        <path d="M4532.314,888.848L4539.623,888.848L4539.623,891.674C4540.966,890.267 4542.157,889.303 4543.196,888.783C4544.258,888.242 4545.514,887.971 4546.965,887.971C4548.892,887.971 4550.906,888.599 4553.007,889.855L4549.661,896.547C4548.275,895.551 4546.921,895.053 4545.6,895.053C4541.615,895.053 4539.623,898.063 4539.623,904.084L4539.623,920.489L4532.314,920.489L4532.314,888.848Z" style="fill:rgb(250,247,234);"/>
                        <path d="M4570.094,914.609L4555.866,888.848L4564.344,888.848L4574.025,907.04L4583.056,888.848L4591.307,888.848L4566.098,937.706L4557.75,937.706L4570.094,914.609Z" style="fill:rgb(250,247,234);"/>
                    </g>
                    <g transform="matrix(0.333737,0,0,0.333737,2563.524931,729.504678)">
                        <path d="M4387.787,870.332L4396.104,870.332C4398.637,870.332 4400.771,870.613 4402.503,871.176C4404.106,871.718 4405.535,872.681 4406.791,874.067C4408.675,876.146 4410.018,878.853 4410.819,882.189C4411.621,885.415 4412.021,890.039 4412.021,896.06C4412.021,901.582 4411.577,906.087 4410.689,909.574C4409.823,912.909 4408.394,915.453 4406.401,917.208C4403.954,919.395 4399.569,920.489 4393.245,920.489L4387.787,920.489L4387.787,870.332ZM4394.544,914.576C4398.659,914.576 4401.41,913.331 4402.796,910.84C4404.225,908.35 4404.94,903.51 4404.94,896.32C4404.94,888.588 4404.257,883.271 4402.893,880.369C4401.529,877.467 4399.027,876.016 4395.389,876.016L4394.544,876.016L4394.544,914.576Z" style="fill:rgb(250,247,234);fill-opacity:0.5;"/>
                        <path d="M4418.388,886.866L4424.626,886.866L4424.626,920.489L4418.388,920.489L4418.388,886.866ZM4421.312,872.573C4422.438,872.573 4423.413,872.984 4424.236,873.807C4425.059,874.63 4425.47,875.616 4425.47,876.764C4425.47,877.933 4425.059,878.929 4424.236,879.752C4423.413,880.575 4422.417,880.987 4421.247,880.987C4420.078,880.987 4419.081,880.575 4418.258,879.752C4417.457,878.951 4417.057,877.944 4417.057,876.731C4417.057,875.605 4417.468,874.63 4418.291,873.807C4419.179,872.984 4420.186,872.573 4421.312,872.573Z" style="fill:rgb(250,247,234);fill-opacity:0.5;"/>
                        <path d="M4444.604,887.549L4444.604,893.363C4443.088,892.237 4441.496,891.674 4439.829,891.674C4439.266,891.674 4438.746,891.772 4438.269,891.967C4437.793,892.162 4437.376,892.427 4437.019,892.763C4436.661,893.098 4436.38,893.499 4436.174,893.964C4435.968,894.43 4435.865,894.923 4435.865,895.443C4435.865,897.045 4437.316,898.951 4440.218,901.16C4441.388,902.07 4442.362,902.914 4443.142,903.694C4443.922,904.473 4444.517,905.21 4444.929,905.903C4445.773,907.267 4446.196,908.989 4446.196,911.068C4446.196,914.078 4445.319,916.493 4443.564,918.312C4441.832,920.11 4439.504,921.008 4436.58,921.008C4434.783,921.008 4432.963,920.478 4431.123,919.417L4431.123,913.407C4432.92,914.75 4434.62,915.421 4436.223,915.421C4439.06,915.421 4440.478,914.024 4440.478,911.23C4440.478,910.191 4440.218,909.292 4439.699,908.534C4439.46,908.166 4439.081,907.738 4438.562,907.251C4438.042,906.764 4437.403,906.217 4436.645,905.61C4434.025,903.575 4432.249,901.864 4431.318,900.478C4430.408,899.048 4429.953,897.327 4429.953,895.313C4429.953,892.605 4430.787,890.386 4432.455,888.653C4434.144,886.942 4436.342,886.087 4439.049,886.087C4440.955,886.087 4442.806,886.574 4444.604,887.549Z" style="fill:rgb(250,247,234);fill-opacity:0.5;"/>
                        <path d="M4464.907,887.516L4464.907,893.851C4464.041,892.79 4463.001,892.259 4461.789,892.259C4458.367,892.259 4456.656,895.962 4456.656,903.369C4456.656,911.23 4458.356,915.161 4461.756,915.161C4462.709,915.161 4463.759,914.739 4464.907,913.894L4464.907,919.709C4463.261,920.575 4461.594,921.008 4459.904,921.008C4453.234,921.008 4449.899,915.334 4449.899,903.986C4449.899,897.944 4450.722,893.488 4452.368,890.618C4454.014,887.749 4456.569,886.314 4460.034,886.314C4461.702,886.314 4463.326,886.715 4464.907,887.516Z" style="fill:rgb(250,247,234);fill-opacity:0.5;"/>
                        <path d="M4490.018,903.954C4490.018,915.323 4486.499,921.008 4479.461,921.008C4472.422,921.008 4468.903,915.237 4468.903,903.694C4468.903,892.107 4472.411,886.314 4479.428,886.314C4481.247,886.314 4482.823,886.661 4484.155,887.354C4485.487,888.047 4486.586,889.119 4487.452,890.57C4488.318,892.021 4488.962,893.851 4489.385,896.06C4489.807,898.269 4490.018,900.9 4490.018,903.954ZM4483.586,903.791C4483.586,899.373 4483.294,896.298 4482.709,894.565C4482.124,892.811 4481.085,891.934 4479.59,891.934C4478.118,891.934 4477.067,892.8 4476.439,894.533C4475.855,896.265 4475.562,899.287 4475.562,903.596C4475.562,907.906 4475.855,910.916 4476.439,912.627C4477.067,914.36 4478.118,915.226 4479.59,915.226C4481.063,915.226 4482.092,914.371 4482.677,912.66C4483.283,911.057 4483.586,908.101 4483.586,903.791Z" style="fill:rgb(250,247,234);fill-opacity:0.5;"/>
                        <path d="M4495.801,886.866L4502.005,886.866L4502.005,891.057C4503.066,889.281 4504.117,888.036 4505.156,887.321C4506.196,886.607 4507.571,886.195 4509.282,886.087L4509.282,892.584C4508.849,892.519 4508.481,892.486 4508.177,892.486C4505.947,892.486 4504.355,893.06 4503.402,894.208C4502.471,895.334 4502.005,897.305 4502.005,900.12L4502.005,920.489L4495.801,920.489L4495.801,886.866Z" style="fill:rgb(250,247,234);fill-opacity:0.5;"/>
                        <path d="M4533.158,865.296L4533.158,920.489L4526.954,920.489L4526.954,916.168C4526.066,918.009 4525.178,919.276 4524.29,919.969C4523.402,920.662 4522.222,921.008 4520.749,921.008C4517.977,921.008 4515.941,919.584 4514.642,916.737C4513.343,913.889 4512.693,909.411 4512.693,903.304C4512.693,900.359 4512.855,897.814 4513.18,895.67C4513.505,893.526 4513.998,891.761 4514.658,890.375C4515.319,888.989 4516.169,887.966 4517.208,887.305C4518.248,886.644 4519.482,886.314 4520.912,886.314C4522.276,886.314 4523.402,886.639 4524.29,887.289C4524.723,887.592 4525.167,888.025 4525.622,888.588C4526.077,889.151 4526.521,889.844 4526.954,890.667L4526.954,865.296L4533.158,865.296ZM4519.125,903.531C4519.125,907.949 4519.417,911.035 4520.002,912.79C4520.608,914.544 4521.67,915.421 4523.186,915.421C4524.572,915.421 4525.579,914.511 4526.207,912.692C4526.835,910.743 4527.149,907.744 4527.149,903.694C4527.149,899.622 4526.835,896.612 4526.207,894.663C4525.579,892.844 4524.572,891.934 4523.186,891.934C4521.713,891.934 4520.663,892.8 4520.034,894.533C4519.428,896.136 4519.125,899.135 4519.125,903.531Z" style="fill:rgb(250,247,234);fill-opacity:0.5;"/>
                        <path d="M4563.435,865.296L4568.665,865.296L4538.778,934.262L4533.483,934.262L4563.435,865.296Z" style="fill:rgb(250,247,234);fill-opacity:0.5;"/>
                        <path d="M4567.138,870.332L4573.7,870.332L4577.176,880.045C4578.54,883.878 4579.352,886.682 4579.612,888.458C4579.85,887.354 4580.116,886.282 4580.408,885.242C4580.701,884.203 4581.009,883.163 4581.334,882.124L4581.789,880.662L4585.005,870.332L4591.827,870.332L4582.536,895.02L4591.827,920.489L4585.005,920.489L4581.691,910.938C4581.02,909.032 4580.479,907.321 4580.067,905.805C4579.656,904.289 4579.363,902.947 4579.19,901.777C4579.017,903.228 4578.724,904.614 4578.313,905.935L4577.176,909.509L4576.591,911.393L4573.7,920.489L4566.553,920.489L4576.039,895.02L4567.138,870.332Z" style="fill:rgb(250,247,234);fill-opacity:0.5;"/>
                    </g>
                </g>
                <g transform="matrix(7.979891,0,0,1,-29770.520096,142.341292)">
                    <path d="M4267.292,807.434L4217.312,807.434" style="fill:none;stroke:rgb(250,247,234);stroke-width:1.1px;"/>
                </g>
                <g transform="matrix(0.612916,0,0,0.612916,1705.364074,324.974649)">
                    <path d="M3979.219,559.176L3979.219,621.496L4041.539,621.496L4041.539,559.176L3979.219,559.176ZM4050.442,559.176L4050.442,568.079L4059.345,568.079L4059.345,576.982L4050.442,576.982L4050.442,585.885L4068.248,585.885L4068.248,594.788L4086.054,594.788L4086.054,630.399L4068.248,630.399L4068.248,621.496L4059.345,621.496L4059.345,612.594L4068.248,612.594L4068.248,621.496L4077.151,621.496L4077.151,612.594L4068.248,612.594L4068.248,594.788L4059.345,594.788L4059.345,603.691L4050.442,603.691L4050.442,621.496L4059.345,621.496L4059.345,639.302L4077.151,639.302L4077.151,657.108L4059.345,657.108L4059.345,674.914L4068.248,674.914L4068.248,692.719L4077.151,692.719L4077.151,701.622L4094.956,701.622L4094.956,683.817L4103.859,683.817L4103.859,674.914L4094.956,674.914L4094.956,648.205L4103.859,648.205L4103.859,639.302L4094.956,639.302L4094.956,612.594L4103.859,612.594L4103.859,639.302L4112.762,639.302L4112.762,657.108L4130.568,657.108L4130.568,666.011L4139.471,666.011L4139.471,683.817L4157.277,683.817L4157.277,674.914L4148.374,674.914L4148.374,666.011L4157.277,666.011L4157.277,657.108L4166.179,657.108L4166.179,666.011L4175.082,666.011L4175.082,657.108L4183.985,657.108L4183.985,648.205L4175.082,648.205L4175.082,639.302L4166.179,639.302L4166.179,648.205L4157.277,648.205L4157.277,630.399L4148.374,630.399L4148.374,639.302L4139.471,639.302L4139.471,648.205L4148.374,648.205L4148.374,657.108L4130.568,657.108L4130.568,639.302L4121.665,639.302L4121.665,630.399L4112.762,630.399L4112.762,585.885L4121.665,585.885L4121.665,576.982L4112.762,576.982L4112.762,559.176L4103.859,559.176L4103.859,576.982L4094.956,576.982L4094.956,559.176L4077.151,559.176L4077.151,568.079L4086.054,568.079L4086.054,576.982L4094.956,576.982L4094.956,585.885L4077.151,585.885L4077.151,568.079L4068.248,568.079L4068.248,559.176L4050.442,559.176ZM4139.471,559.176L4139.471,621.496L4201.791,621.496L4201.791,559.176L4139.471,559.176ZM4032.636,568.079L4032.636,612.594L3988.122,612.594L3988.122,568.079L4032.636,568.079ZM4121.665,568.079L4121.665,576.982L4130.568,576.982L4130.568,568.079L4121.665,568.079ZM4192.888,568.079L4192.888,612.594L4148.374,612.594L4148.374,568.079L4192.888,568.079ZM3997.025,576.982L3997.025,603.691L4023.733,603.691L4023.733,576.982L3997.025,576.982ZM4157.277,576.982L4157.277,603.691L4183.985,603.691L4183.985,576.982L4157.277,576.982ZM4103.859,594.788L4103.859,603.691L4094.956,603.691L4094.956,594.788L4103.859,594.788ZM4121.665,612.594L4121.665,630.399L4130.568,630.399L4130.568,612.594L4121.665,612.594ZM3979.219,630.399L3979.219,639.302L3988.122,639.302L3988.122,648.205L4005.928,648.205L4005.928,630.399L3997.025,630.399L3997.025,639.302L3988.122,639.302L3988.122,630.399L3979.219,630.399ZM4032.636,630.399L4032.636,639.302L4041.539,639.302L4041.539,648.205L4059.345,648.205L4059.345,639.302L4050.442,639.302L4050.442,630.399L4032.636,630.399ZM4175.082,630.399L4175.082,639.302L4183.985,639.302L4183.985,648.205L4192.888,648.205L4192.888,657.108L4201.791,657.108L4201.791,630.399L4192.888,630.399L4192.888,639.302L4183.985,639.302L4183.985,630.399L4175.082,630.399ZM4014.831,639.302L4014.831,657.108L4023.733,657.108L4023.733,666.011L4032.636,666.011L4032.636,674.914L4050.442,674.914L4050.442,666.011L4032.636,666.011L4032.636,657.108L4023.733,657.108L4023.733,648.205L4032.636,648.205L4032.636,657.108L4041.539,657.108L4041.539,648.205L4032.636,648.205L4032.636,639.302L4014.831,639.302ZM3979.219,648.205L3979.219,657.108L3988.122,657.108L3988.122,666.011L3979.219,666.011L3979.219,674.914L3997.025,674.914L3997.025,683.817L3979.219,683.817L3979.219,692.719L3997.025,692.719L3997.025,701.622L3979.219,701.622L3979.219,710.525L4014.831,710.525L4014.831,701.622L4023.733,701.622L4023.733,710.525L4050.442,710.525L4050.442,728.331L4059.345,728.331L4059.345,737.234L4068.248,737.234L4068.248,746.137L4086.054,746.137L4086.054,763.942L4077.151,763.942L4077.151,772.845L4086.054,772.845L4086.054,781.748L4130.568,781.748L4130.568,772.845L4139.471,772.845L4139.471,781.748L4148.374,781.748L4148.374,772.845L4139.471,772.845L4139.471,763.942L4121.665,763.942L4121.665,772.845L4112.762,772.845L4112.762,763.942L4103.859,763.942L4103.859,772.845L4094.956,772.845L4094.956,737.234L4068.248,737.234L4068.248,719.428L4077.151,719.428L4077.151,728.331L4086.054,728.331L4086.054,719.428L4077.151,719.428L4077.151,701.622L4068.248,701.622L4068.248,692.719L4059.345,692.719L4059.345,701.622L4068.248,701.622L4068.248,710.525L4059.345,710.525L4059.345,701.622L4023.733,701.622L4023.733,692.719L4050.442,692.719L4050.442,683.817L4014.831,683.817L4014.831,692.719L4005.928,692.719L4005.928,674.914L3997.025,674.914L3997.025,666.011L4005.928,666.011L4005.928,674.914L4014.831,674.914L4014.831,657.108L3988.122,657.108L3988.122,648.205L3979.219,648.205ZM4086.054,666.011L4086.054,692.719L4077.151,692.719L4077.151,666.011L4086.054,666.011ZM4121.665,666.011L4121.665,674.914L4112.762,674.914L4112.762,692.719L4103.859,692.719L4103.859,701.622L4112.762,701.622L4112.762,710.525L4103.859,710.525L4103.859,728.331L4112.762,728.331L4112.762,746.137L4121.665,746.137L4121.665,755.039L4139.471,755.039L4139.471,746.137L4157.277,746.137L4157.277,755.039L4148.374,755.039L4148.374,772.845L4166.179,772.845L4166.179,781.748L4175.082,781.748L4175.082,772.845L4166.179,772.845L4166.179,763.942L4175.082,763.942L4175.082,755.039L4166.179,755.039L4166.179,701.622L4175.082,701.622L4175.082,692.719L4183.985,692.719L4183.985,683.817L4166.179,683.817L4166.179,692.719L4139.471,692.719L4139.471,683.817L4130.568,683.817L4130.568,666.011L4121.665,666.011ZM4192.888,666.011L4192.888,674.914L4183.985,674.914L4183.985,683.817L4192.888,683.817L4192.888,692.719L4201.791,692.719L4201.791,666.011L4192.888,666.011ZM4130.568,701.622L4121.665,701.622L4121.665,683.817L4130.568,683.817L4130.568,701.622ZM4183.985,701.622L4183.985,710.525L4192.888,710.525L4192.888,728.331L4183.985,728.331L4183.985,737.234L4192.888,737.234L4192.888,746.137L4201.791,746.137L4201.791,710.525L4192.888,710.525L4192.888,701.622L4183.985,701.622ZM4157.277,710.525L4157.277,737.234L4130.568,737.234L4130.568,710.525L4157.277,710.525ZM3979.219,719.428L3979.219,781.748L4041.539,781.748L4041.539,719.428L3979.219,719.428ZM4121.665,719.428L4121.665,728.331L4112.762,728.331L4112.762,719.428L4121.665,719.428ZM4139.471,719.428L4139.471,728.331L4148.374,728.331L4148.374,719.428L4139.471,719.428ZM4032.636,728.331L4032.636,772.845L3988.122,772.845L3988.122,728.331L4032.636,728.331ZM3997.025,737.234L3997.025,763.942L4023.733,763.942L4023.733,737.234L3997.025,737.234ZM4059.345,746.137L4059.345,755.039L4050.442,755.039L4050.442,763.942L4059.345,763.942L4059.345,772.845L4050.442,772.845L4050.442,781.748L4077.151,781.748L4077.151,772.845L4068.248,772.845L4068.248,746.137L4059.345,746.137ZM4175.082,746.137L4175.082,755.039L4183.985,755.039L4183.985,763.942L4201.791,763.942L4201.791,755.039L4192.888,755.039L4192.888,746.137L4175.082,746.137ZM4192.888,772.845L4192.888,781.748L4201.791,781.748L4201.791,772.845L4192.888,772.845Z" style="fill:rgb(250,247,234);"/>
                </g>
            </g>
        </g>
    </g>
</svg>
