<?xml version="1.0" encoding="UTF-8" standalone="no"?>
<!DOCTYPE svg PUBLIC "-//W3C//DTD SVG 1.1//EN" "http://www.w3.org/Graphics/SVG/1.1/DTD/svg11.dtd">
<svg width="100%" height="100%" viewBox="0 0 591 1063" version="1.1" xmlns="http://www.w3.org/2000/svg" xmlns:xlink="http://www.w3.org/1999/xlink" xml:space="preserve" xmlns:serif="http://www.serif.com/" style="fill-rule:evenodd;clip-rule:evenodd;stroke-linejoin:round;stroke-miterlimit:2;">
    <g transform="matrix(1,0,0,1,-2645.661417,-23.622047)">
        <g id="Print-Back" serif:id="Print Back" transform="matrix(0.925926,0,0,0.957447,1836.387577,23.622047)">
            <rect x="874.016" y="0" width="637.795" height="1110.236" style="fill:none;"/>
            <clipPath id="_clip1">
                <rect x="874.016" y="0" width="637.795" height="1110.236"/>
            </clipPath>
            <g clip-path="url(#_clip1)">
                <g transform="matrix(1.979465,0,0,2.667503,-1027.848051,-238.706962)">
                    <rect x="947.909" y="80.238" width="347.982" height="434.706" style="fill:rgb(92,117,49);"/>
                </g>
                <g transform="matrix(0.169341,0,0,0.163766,739.394828,864.376564)">
                    <path d="M1190.902,359.982L1190.902,415.612L1220.311,415.612L1220.311,434.746L1179.327,434.746L1179.327,445.258L1274.524,445.258L1274.524,434.746L1233.303,434.746L1233.303,415.612L1264.13,415.612L1264.13,405.337L1204.012,405.337L1204.012,392.463L1260.823,392.463L1260.823,382.423L1204.012,382.423L1204.012,370.376L1263.185,370.376L1263.185,359.982L1190.902,359.982Z" style="fill:white;fill-rule:nonzero;"/>
                    <path d="M1288.107,358.447L1288.107,368.959L1347.988,368.959C1347.988,372.856 1347.988,376.99 1347.752,381.36L1284.799,383.368L1286.335,394.352L1347.044,391.4C1346.453,396.478 1345.508,402.148 1344.209,408.407L1276.65,408.407L1276.65,418.919L1317.634,418.919L1317.634,457.541L1330.626,457.541L1330.626,418.919L1371.729,418.919L1371.729,408.407L1357.083,408.407C1360.626,391.163 1360.626,378.998 1360.626,368.014L1360.626,358.447L1288.107,358.447Z" style="fill:white;fill-rule:nonzero;"/>
                    <path d="M1420.626,395.652C1415.429,395.652 1411.768,399.313 1411.768,404.392C1411.768,409.589 1415.429,413.25 1420.626,413.25C1425.823,413.25 1429.484,409.589 1429.484,404.392C1429.484,399.313 1425.823,395.652 1420.626,395.652Z" style="fill:white;fill-rule:nonzero;"/>
                    <path d="M1500.941,355.848L1500.941,455.297L1514.17,455.297L1514.17,404.746C1522.555,406.281 1531.059,408.526 1539.681,411.36C1547.359,413.959 1555.036,417.029 1562.831,420.573L1568.5,409.589C1559.76,405.455 1551.138,402.029 1542.516,399.195C1533.067,396.006 1523.618,393.644 1514.17,391.99L1514.17,355.848L1500.941,355.848Z" style="fill:white;fill-rule:nonzero;"/>
                    <path d="M1625.311,354.549C1622.004,364.116 1617.28,373.092 1611.02,381.596C1604.878,389.628 1597.201,397.187 1588.225,404.274L1597.319,412.896C1607.24,405.337 1615.272,397.305 1621.532,389.037C1623.185,386.793 1624.721,384.431 1626.374,381.951L1662.87,381.951C1659.091,397.541 1651.768,410.652 1640.902,421.281C1631.217,430.73 1618.815,438.289 1603.579,443.959L1610.547,455.061C1629.327,447.738 1644.327,437.463 1655.666,424.116C1667.004,410.415 1674.327,393.644 1677.87,373.683L1670.193,369.667L1632.87,369.667C1634.524,366.124 1636.059,362.344 1637.477,358.447L1625.311,354.549Z" style="fill:white;fill-rule:nonzero;"/>
                    <path d="M1740.469,395.652C1735.272,395.652 1731.61,399.313 1731.61,404.392C1731.61,409.589 1735.272,413.25 1740.469,413.25C1745.666,413.25 1749.327,409.589 1749.327,404.392C1749.327,399.313 1745.666,395.652 1740.469,395.652Z" style="fill:white;fill-rule:nonzero;"/>
                    <path d="M1829.051,363.407L1829.051,374.628L1855.154,374.628L1855.154,388.919L1826.217,388.919L1826.217,400.494L1895.311,400.494L1895.311,388.919L1867.083,388.919L1867.083,374.628L1891.768,374.628L1891.768,363.407L1867.083,363.407L1867.083,351.124L1855.154,351.124L1855.154,363.407L1829.051,363.407ZM1804.366,414.077L1804.366,459.785L1816.296,459.785L1816.296,400.376C1819.012,396.36 1821.374,392.344 1823.264,388.092L1812.634,383.132C1807.792,393.998 1800.351,403.329 1790.311,411.36L1793.855,422.817C1797.634,419.982 1801.059,417.029 1804.366,414.077ZM1812.398,349.943C1807.555,360.927 1799.996,370.494 1789.839,378.526L1793.5,390.337C1807.555,379.707 1817.477,368.014 1823.264,355.14L1812.398,349.943ZM1854.918,403.092L1854.918,445.494C1854.445,445.258 1853.973,445.14 1853.5,444.903C1848.776,442.777 1844.406,437.817 1840.508,429.903C1842.162,423.526 1843.107,416.911 1843.461,409.943L1832.004,408.407C1830.941,424.234 1826.099,438.762 1817.359,451.754L1826.925,460.022C1830.705,454.589 1833.776,448.801 1836.374,442.777C1839.681,448.092 1843.579,451.872 1848.067,454.234C1855.39,458.014 1867.437,459.903 1884.327,459.903L1896.374,459.903L1898.855,447.62C1891.886,448.211 1885.154,448.565 1878.776,448.565C1874.406,448.565 1870.508,448.329 1867.083,447.974L1867.083,428.368L1891.65,428.368L1891.65,416.911L1867.083,416.911L1867.083,403.092L1854.918,403.092Z" style="fill:white;fill-rule:nonzero;"/>
                    <path d="M1902.162,354.667L1902.162,365.77L1917.162,365.77L1917.162,376.636L1904.878,376.636L1904.878,460.022L1914.799,460.022L1914.799,453.762L1941.965,453.762L1941.965,460.022L1951.886,460.022L1951.886,376.636L1939.721,376.636L1939.721,365.77L1954.13,365.77L1954.13,354.667L1902.162,354.667ZM1914.799,443.959L1914.799,433.919L1941.965,433.919L1941.965,443.959L1914.799,443.959ZM1919.642,386.439L1919.642,393.407C1919.524,401.439 1917.87,407.817 1914.799,412.659L1914.799,386.439L1919.642,386.439ZM1914.799,419.037L1917.162,421.045C1922.831,415.258 1925.666,406.045 1925.902,393.407L1925.902,386.439L1930.508,386.439L1930.508,407.935C1930.508,413.25 1932.752,415.966 1937.359,415.966L1941.965,415.966L1941.965,424.234L1914.799,424.234L1914.799,419.037ZM1926.02,376.636L1926.02,365.77L1930.862,365.77L1930.862,376.636L1926.02,376.636ZM1941.965,408.171L1939.248,408.171C1937.713,408.171 1937.004,407.344 1937.004,405.927L1937.004,386.439L1941.965,386.439L1941.965,408.171ZM1967.122,378.762L1978.225,378.762L1978.225,394.589L1954.248,394.589L1954.248,405.691L2010.587,405.691L2010.587,394.589L1989.445,394.589L1989.445,378.762L2008.107,378.762L2008.107,367.777L1989.445,367.777L1989.445,351.242L1978.225,351.242L1978.225,367.777L1970.311,367.777C1971.138,364.47 1971.965,361.045 1972.673,357.384L1962.516,355.14C1960.508,365.888 1957.201,376.045 1952.595,385.612L1961.925,391.518C1963.815,387.62 1965.469,383.368 1967.122,378.762ZM2006.571,414.549L1957.792,414.549L1957.792,460.14L1969.012,460.14L1969.012,455.77L1995.233,455.77L1995.233,460.14L2006.571,460.14L2006.571,414.549ZM1969.012,444.667L1969.012,425.652L1995.233,425.652L1995.233,444.667L1969.012,444.667Z" style="fill:white;fill-rule:nonzero;"/>
                </g>
                <g transform="matrix(1.08,0,0,1.044444,-337.417216,436.507407)">
                    <path d="M1218.421,378.526L1218.421,447.974L1195.272,447.974L1195.272,378.526L1176.256,378.526L1176.256,358.919L1237.437,358.919L1237.437,378.526L1218.421,378.526Z" style="fill:white;fill-rule:nonzero;"/>
                    <path d="M1261.177,403.447C1261.177,406.99 1261.847,410.258 1263.185,413.25C1264.524,416.242 1266.335,418.84 1268.618,421.045C1270.902,423.25 1273.559,424.963 1276.591,426.183C1279.622,427.403 1282.831,428.014 1286.217,428.014C1289.603,428.014 1292.811,427.403 1295.843,426.183C1298.874,424.963 1301.551,423.25 1303.874,421.045C1306.197,418.84 1308.028,416.242 1309.366,413.25C1310.705,410.258 1311.374,406.99 1311.374,403.447C1311.374,399.903 1310.705,396.636 1309.366,393.644C1308.028,390.652 1306.197,388.053 1303.874,385.848C1301.551,383.644 1298.874,381.931 1295.843,380.711C1292.811,379.49 1289.603,378.88 1286.217,378.88C1282.831,378.88 1279.622,379.49 1276.591,380.711C1273.559,381.931 1270.902,383.644 1268.618,385.848C1266.335,388.053 1264.524,390.652 1263.185,393.644C1261.847,396.636 1261.177,399.903 1261.177,403.447ZM1236.965,403.447C1236.965,396.833 1238.185,390.671 1240.626,384.963C1243.067,379.254 1246.453,374.274 1250.784,370.022C1255.114,365.77 1260.292,362.443 1266.315,360.041C1272.339,357.64 1278.973,356.439 1286.217,356.439C1293.382,356.439 1299.996,357.64 1306.059,360.041C1312.122,362.443 1317.339,365.77 1321.709,370.022C1326.079,374.274 1329.484,379.254 1331.925,384.963C1334.366,390.671 1335.587,396.833 1335.587,403.447C1335.587,410.061 1334.366,416.222 1331.925,421.931C1329.484,427.64 1326.079,432.62 1321.709,436.872C1317.339,441.124 1312.122,444.451 1306.059,446.852C1299.996,449.254 1293.382,450.455 1286.217,450.455C1278.973,450.455 1272.339,449.254 1266.315,446.852C1260.292,444.451 1255.114,441.124 1250.784,436.872C1246.453,432.62 1243.067,427.64 1240.626,421.931C1238.185,416.222 1236.965,410.061 1236.965,403.447Z" style="fill:white;fill-rule:nonzero;"/>
                    <path d="M1367.477,395.652L1395.705,358.919L1424.288,358.919L1388.973,401.085L1427.595,447.974L1397.595,447.974L1367.477,409.352L1367.477,447.974L1344.327,447.974L1344.327,358.919L1367.477,358.919L1367.477,395.652Z" style="fill:white;fill-rule:nonzero;"/>
                    <path d="M1455.114,358.919L1455.114,407.344C1455.114,409.943 1455.213,412.6 1455.41,415.317C1455.607,418.033 1456.197,420.494 1457.181,422.699C1458.166,424.903 1459.721,426.695 1461.847,428.073C1463.973,429.451 1466.965,430.14 1470.823,430.14C1474.681,430.14 1477.654,429.451 1479.74,428.073C1481.827,426.695 1483.382,424.903 1484.406,422.699C1485.429,420.494 1486.04,418.033 1486.236,415.317C1486.433,412.6 1486.532,409.943 1486.532,407.344L1486.532,358.919L1509.563,358.919L1509.563,410.533C1509.563,424.392 1506.394,434.51 1500.055,440.888C1493.717,447.266 1483.973,450.455 1470.823,450.455C1457.673,450.455 1447.91,447.266 1441.532,440.888C1435.154,434.51 1431.965,424.392 1431.965,410.533L1431.965,358.919L1455.114,358.919Z" style="fill:white;fill-rule:nonzero;"/>
                </g>
                <g transform="matrix(0.207762,0,0,0.200922,694.060496,912.692972)">
                    <path d="M1210.548,371.56L1210.548,447.974L1197.111,447.974L1197.111,371.56L1176.638,371.56L1176.638,358.93L1230.964,358.93L1230.964,371.56L1210.548,371.56Z" style="fill:white;fill-opacity:0.5;fill-rule:nonzero;"/>
                    <path d="M1239.257,391.803L1253.963,423.868L1269.823,386.67L1285.797,423.868L1300.33,391.803L1314.864,391.803L1285.451,452.184L1269.823,416.025L1254.021,452.184L1224.666,391.803L1239.257,391.803Z" style="fill:white;fill-opacity:0.5;fill-rule:nonzero;"/>
                    <path d="M1333.653,391.803L1333.653,447.974L1320.677,447.974L1320.677,391.803L1333.653,391.803ZM1318.716,368.446C1318.716,366.178 1319.543,364.217 1321.196,362.564C1322.849,360.91 1324.829,360.084 1327.136,360.084C1329.481,360.084 1331.481,360.91 1333.134,362.564C1334.787,364.178 1335.614,366.158 1335.614,368.504C1335.614,370.849 1334.787,372.848 1333.134,374.501C1331.519,376.155 1329.539,376.981 1327.194,376.981C1324.848,376.981 1322.849,376.155 1321.196,374.501C1319.543,372.848 1318.716,370.83 1318.716,368.446Z" style="fill:white;fill-opacity:0.5;fill-rule:nonzero;"/>
                    <path d="M1360.516,403.914L1360.516,447.974L1347.54,447.974L1347.54,403.914L1342.004,403.914L1342.004,391.803L1347.54,391.803L1347.54,371.214L1360.516,371.214L1360.516,391.803L1370.608,391.803L1370.608,403.914L1360.516,403.914Z" style="fill:white;fill-opacity:0.5;fill-rule:nonzero;"/>
                    <path d="M1389.859,403.914L1389.859,447.974L1376.883,447.974L1376.883,403.914L1371.347,403.914L1371.347,391.803L1376.883,391.803L1376.883,371.214L1389.859,371.214L1389.859,391.803L1399.951,391.803L1399.951,403.914L1389.859,403.914Z" style="fill:white;fill-opacity:0.5;fill-rule:nonzero;"/>
                    <path d="M1458.015,422.945L1417.76,422.945C1418.106,427.559 1419.606,431.231 1422.259,433.96C1424.911,436.652 1428.314,437.997 1432.466,437.997C1435.696,437.997 1438.368,437.228 1440.483,435.69C1442.559,434.153 1444.923,431.307 1447.576,427.155L1458.534,433.268C1456.842,436.152 1455.054,438.622 1453.17,440.679C1451.286,442.736 1449.268,444.428 1447.115,445.754C1444.962,447.08 1442.636,448.051 1440.137,448.666C1437.637,449.282 1434.927,449.589 1432.005,449.589C1423.623,449.589 1416.895,446.898 1411.82,441.515C1406.745,436.094 1404.208,428.904 1404.208,419.946C1404.208,411.065 1406.668,403.875 1411.589,398.377C1416.549,392.956 1423.124,390.246 1431.313,390.246C1439.579,390.246 1446.115,392.879 1450.921,398.147C1455.689,403.375 1458.072,410.623 1458.072,419.889L1458.015,422.945ZM1444.693,412.334C1442.886,405.413 1438.522,401.953 1431.601,401.953C1430.025,401.953 1428.545,402.193 1427.161,402.674C1425.776,403.154 1424.517,403.846 1423.383,404.75C1422.249,405.653 1421.278,406.74 1420.471,408.008C1419.663,409.277 1419.048,410.719 1418.625,412.334L1444.693,412.334Z" style="fill:white;fill-opacity:0.5;fill-rule:nonzero;"/>
                    <path d="M1469.249,391.803L1482.225,391.803L1482.225,396.82C1484.609,394.321 1486.723,392.61 1488.569,391.687C1490.453,390.726 1492.683,390.246 1495.259,390.246C1498.68,390.246 1502.256,391.361 1505.985,393.591L1500.045,405.471C1497.585,403.702 1495.182,402.818 1492.836,402.818C1485.762,402.818 1482.225,408.162 1482.225,418.85L1482.225,447.974L1469.249,447.974L1469.249,391.803Z" style="fill:white;fill-opacity:0.5;fill-rule:nonzero;"/>
                </g>
                <g transform="matrix(0.207762,0,0,0.200922,694.060496,952.103866)">
                    <path d="M1185.98,447.974L1185.98,358.93L1204.666,358.93C1213.624,358.93 1220.698,359.815 1225.889,361.583C1231.464,363.313 1236.519,366.255 1241.056,370.407C1250.245,378.788 1254.84,389.804 1254.84,403.452C1254.84,417.14 1250.053,428.212 1240.48,436.671C1235.674,440.9 1230.637,443.841 1225.37,445.494C1220.448,447.148 1213.47,447.974 1204.435,447.974L1185.98,447.974ZM1199.418,435.344L1205.473,435.344C1211.509,435.344 1216.527,434.71 1220.525,433.441C1224.524,432.096 1228.138,429.962 1231.367,427.04C1237.98,421.004 1241.287,413.141 1241.287,403.452C1241.287,393.687 1238.019,385.767 1231.483,379.692C1225.6,374.271 1216.931,371.56 1205.473,371.56L1199.418,371.56L1199.418,435.344Z" style="fill:white;fill-opacity:0.5;fill-rule:nonzero;"/>
                    <path d="M1279.281,391.803L1279.281,447.974L1266.305,447.974L1266.305,391.803L1279.281,391.803ZM1264.344,368.446C1264.344,366.178 1265.17,364.217 1266.824,362.564C1268.477,360.91 1270.457,360.084 1272.764,360.084C1275.109,360.084 1277.108,360.91 1278.762,362.564C1280.415,364.178 1281.241,366.158 1281.241,368.504C1281.241,370.849 1280.415,372.848 1278.762,374.501C1277.147,376.155 1275.167,376.981 1272.821,376.981C1270.476,376.981 1268.477,376.155 1266.824,374.501C1265.17,372.848 1264.344,370.83 1264.344,368.446Z" style="fill:white;fill-opacity:0.5;fill-rule:nonzero;"/>
                    <path d="M1325.406,401.376L1314.679,407.086C1312.987,403.625 1310.892,401.895 1308.393,401.895C1307.201,401.895 1306.182,402.289 1305.336,403.077C1304.49,403.866 1304.068,404.875 1304.068,406.105C1304.068,408.258 1306.567,410.392 1311.565,412.507C1318.447,415.467 1323.08,418.197 1325.464,420.696C1327.847,423.195 1329.039,426.559 1329.039,430.788C1329.039,436.209 1327.04,440.746 1323.041,444.399C1319.158,447.859 1314.468,449.589 1308.97,449.589C1299.55,449.589 1292.879,444.995 1288.958,435.806L1300.031,430.673C1301.568,433.364 1302.741,435.075 1303.549,435.806C1305.125,437.267 1307.009,437.997 1309.2,437.997C1313.583,437.997 1315.775,435.998 1315.775,431.999C1315.775,429.693 1314.083,427.54 1310.7,425.54C1309.393,424.887 1308.085,424.252 1306.778,423.637C1305.471,423.022 1304.144,422.388 1302.799,421.734C1299.031,419.889 1296.378,418.043 1294.84,416.198C1292.879,413.852 1291.899,410.834 1291.899,407.143C1291.899,402.26 1293.571,398.223 1296.916,395.032C1300.338,391.841 1304.49,390.246 1309.373,390.246C1316.563,390.246 1321.907,393.956 1325.406,401.376Z" style="fill:white;fill-opacity:0.5;fill-rule:nonzero;"/>
                    <path d="M1381.451,394.225L1381.451,411.469C1378.49,407.855 1375.837,405.375 1373.492,404.029C1371.185,402.645 1368.475,401.953 1365.36,401.953C1360.478,401.953 1356.421,403.664 1353.192,407.086C1349.962,410.507 1348.347,414.794 1348.347,419.946C1348.347,425.214 1349.904,429.539 1353.019,432.922C1356.171,436.306 1360.189,437.997 1365.072,437.997C1368.186,437.997 1370.935,437.324 1373.319,435.979C1375.626,434.672 1378.336,432.134 1381.451,428.366L1381.451,445.494C1376.183,448.224 1370.916,449.589 1365.649,449.589C1356.96,449.589 1349.693,446.782 1343.849,441.169C1338.005,435.517 1335.083,428.501 1335.083,420.119C1335.083,411.738 1338.043,404.663 1343.964,398.896C1349.885,393.129 1357.152,390.246 1365.764,390.246C1371.3,390.246 1376.529,391.572 1381.451,394.225Z" style="fill:white;fill-opacity:0.5;fill-rule:nonzero;"/>
                    <path d="M1388.417,419.485C1388.417,411.372 1391.32,404.471 1397.126,398.781C1402.931,393.091 1410.005,390.246 1418.348,390.246C1426.73,390.246 1433.843,393.11 1439.687,398.839C1445.454,404.567 1448.337,411.603 1448.337,419.946C1448.337,428.366 1445.435,435.421 1439.629,441.111C1433.785,446.763 1426.615,449.589 1418.118,449.589C1409.698,449.589 1402.643,446.706 1396.953,440.938C1391.262,435.248 1388.417,428.097 1388.417,419.485ZM1401.682,419.716C1401.682,425.329 1403.181,429.77 1406.18,433.038C1409.256,436.344 1413.312,437.997 1418.348,437.997C1423.423,437.997 1427.48,436.363 1430.517,433.095C1433.554,429.827 1435.073,425.463 1435.073,420.004C1435.073,414.544 1433.554,410.181 1430.517,406.913C1427.441,403.606 1423.385,401.953 1418.348,401.953C1413.389,401.953 1409.371,403.606 1406.295,406.913C1403.219,410.219 1401.682,414.487 1401.682,419.716Z" style="fill:white;fill-opacity:0.5;fill-rule:nonzero;"/>
                    <path d="M1459.11,391.803L1472.086,391.803L1472.086,396.82C1474.47,394.321 1476.585,392.61 1478.43,391.687C1480.314,390.726 1482.544,390.246 1485.12,390.246C1488.542,390.246 1492.117,391.361 1495.847,393.591L1489.907,405.471C1487.446,403.702 1485.043,402.818 1482.698,402.818C1475.623,402.818 1472.086,408.162 1472.086,418.85L1472.086,447.974L1459.11,447.974L1459.11,391.803Z" style="fill:white;fill-opacity:0.5;fill-rule:nonzero;"/>
                    <path d="M1540.934,350.568L1553.968,350.568L1553.968,447.974L1540.934,447.974L1540.934,442.092C1535.82,447.09 1530.034,449.589 1523.575,449.589C1515.886,449.589 1509.503,446.782 1504.428,441.169C1499.392,435.441 1496.873,428.289 1496.873,419.716C1496.873,411.334 1499.392,404.337 1504.428,398.723C1509.426,393.072 1515.712,390.246 1523.287,390.246C1529.861,390.246 1535.744,392.937 1540.934,398.32L1540.934,350.568ZM1510.138,419.716C1510.138,425.098 1511.579,429.481 1514.463,432.865C1517.423,436.286 1521.153,437.997 1525.651,437.997C1530.457,437.997 1534.34,436.344 1537.301,433.038C1540.261,429.616 1541.741,425.271 1541.741,420.004C1541.741,414.737 1540.261,410.392 1537.301,406.97C1534.34,403.625 1530.496,401.953 1525.766,401.953C1521.307,401.953 1517.577,403.645 1514.578,407.028C1511.618,410.45 1510.138,414.679 1510.138,419.716Z" style="fill:white;fill-opacity:0.5;fill-rule:nonzero;"/>
                </g>
                <g transform="matrix(0.207762,0,0,0.200922,839.216191,912.692972)">
                    <path d="M1251.898,380.153L1248.265,410.431C1248.111,411.545 1248.006,412.612 1247.948,413.631C1247.89,414.65 1247.861,415.602 1247.861,416.486C1247.861,419.37 1249.053,420.811 1251.437,420.811C1254.782,420.811 1257.819,418.447 1260.549,413.718C1263.24,409.066 1264.586,403.76 1264.586,397.801C1264.586,388.343 1261.28,380.595 1254.667,374.559C1248.092,368.446 1239.691,365.389 1229.464,365.389C1218.776,365.389 1209.779,369.042 1202.474,376.347C1195.208,383.613 1191.574,392.61 1191.574,403.337C1191.574,409.258 1192.882,415.063 1195.496,420.754C1198.149,426.098 1201.859,430.5 1206.627,433.96C1213.009,438.574 1221.006,440.881 1230.618,440.881C1239.614,440.881 1249.034,438.593 1258.877,434.018L1259.742,433.557L1262.741,441.861L1262.048,442.207C1252.014,447.052 1241.556,449.474 1230.675,449.474C1218.641,449.474 1208.568,446.571 1200.456,440.765C1194.496,436.536 1189.844,431.134 1186.499,424.56C1183.193,417.639 1181.54,410.604 1181.54,403.452C1181.54,390.419 1186.134,379.48 1195.323,370.638C1204.512,361.795 1215.854,357.373 1229.349,357.373C1241.767,357.373 1252.167,361.179 1260.549,368.792C1268.892,376.328 1273.064,385.767 1273.064,397.109C1273.064,405.875 1270.795,413.391 1266.258,419.658C1261.683,426.002 1256.32,429.174 1250.168,429.174C1245.247,429.174 1241.902,426.848 1240.133,422.195C1235.404,427.04 1230.137,429.462 1224.332,429.462C1217.988,429.462 1212.701,427.174 1208.472,422.599C1204.32,418.062 1202.244,412.276 1202.244,405.24C1202.244,397.666 1204.57,391.438 1209.222,386.555C1213.874,381.557 1219.718,379.057 1226.754,379.057C1233.213,379.057 1238.423,381.557 1242.383,386.555L1243.19,380.153L1251.898,380.153ZM1240.133,402.414C1240.133,398.839 1238.922,395.859 1236.5,393.475C1234.001,391.092 1230.964,389.9 1227.388,389.9C1223.505,389.9 1220.333,391.399 1217.872,394.398C1215.373,397.358 1214.124,401.145 1214.124,405.759C1214.124,409.758 1215.123,413.045 1217.123,415.621C1219.122,418.197 1221.698,419.485 1224.851,419.485C1228.888,419.485 1232.444,417.774 1235.52,414.352C1238.596,410.93 1240.133,406.951 1240.133,402.414Z" style="fill:white;fill-rule:nonzero;"/>
                    <path d="M1297.966,403.914L1297.966,447.974L1284.932,447.974L1284.932,403.914L1280.319,403.914L1280.319,391.803L1284.932,391.803L1284.932,370.118C1284.932,363.044 1286.163,358.046 1288.623,355.124C1292.007,351.049 1296.928,349.011 1303.387,349.011C1305.694,349.011 1308.597,349.684 1312.095,351.029L1312.095,364.294L1310.769,363.602C1307.962,362.179 1305.655,361.468 1303.848,361.468C1301.542,361.468 1299.984,362.294 1299.177,363.948C1298.37,365.562 1297.966,368.677 1297.966,373.29L1297.966,391.803L1312.095,391.803L1312.095,403.914L1297.966,403.914Z" style="fill:white;fill-rule:nonzero;"/>
                    <path d="M1330.797,391.803L1330.797,424.041C1330.797,433.345 1334.469,437.997 1341.812,437.997C1349.156,437.997 1352.827,433.345 1352.827,424.041L1352.827,391.803L1365.803,391.803L1365.803,424.329C1365.803,428.828 1365.246,432.711 1364.131,435.979C1363.054,438.901 1361.19,441.534 1358.537,443.88C1354.154,447.686 1348.579,449.589 1341.812,449.589C1335.084,449.589 1329.528,447.686 1325.145,443.88C1322.454,441.534 1320.551,438.901 1319.436,435.979C1318.359,433.364 1317.821,429.481 1317.821,424.329L1317.821,391.803L1330.797,391.803Z" style="fill:white;fill-rule:nonzero;"/>
                    <path d="M1376.867,391.803L1389.843,391.803L1389.843,396.82C1392.227,394.321 1394.341,392.61 1396.187,391.687C1398.071,390.726 1400.3,390.246 1402.876,390.246C1406.298,390.246 1409.874,391.361 1413.603,393.591L1407.663,405.471C1405.203,403.702 1402.8,402.818 1400.454,402.818C1393.38,402.818 1389.843,408.162 1389.843,418.85L1389.843,447.974L1376.867,447.974L1376.867,391.803Z" style="fill:white;fill-rule:nonzero;"/>
                    <path d="M1435.737,403.914L1435.737,447.974L1422.761,447.974L1422.761,403.914L1417.225,403.914L1417.225,391.803L1422.761,391.803L1422.761,371.214L1435.737,371.214L1435.737,391.803L1445.83,391.803L1445.83,403.914L1435.737,403.914Z" style="fill:white;fill-rule:nonzero;"/>
                    <path d="M1449.855,419.485C1449.855,411.372 1452.758,404.471 1458.564,398.781C1464.369,393.091 1471.443,390.246 1479.787,390.246C1488.168,390.246 1495.281,393.11 1501.125,398.839C1506.892,404.567 1509.775,411.603 1509.775,419.946C1509.775,428.366 1506.873,435.421 1501.067,441.111C1495.223,446.763 1488.053,449.589 1479.556,449.589C1471.136,449.589 1464.081,446.706 1458.391,440.938C1452.7,435.248 1449.855,428.097 1449.855,419.485ZM1463.12,419.716C1463.12,425.329 1464.619,429.77 1467.618,433.038C1470.694,436.344 1474.75,437.997 1479.787,437.997C1484.862,437.997 1488.918,436.363 1491.955,433.095C1494.992,429.827 1496.511,425.463 1496.511,420.004C1496.511,414.544 1494.992,410.181 1491.955,406.913C1488.879,403.606 1484.823,401.953 1479.787,401.953C1474.827,401.953 1470.809,403.606 1467.733,406.913C1464.658,410.219 1463.12,414.487 1463.12,419.716Z" style="fill:white;fill-rule:nonzero;"/>
                    <path d="M1532.343,350.568L1532.343,409.969L1550.625,391.803L1568.042,391.803L1543.647,415.39L1569.829,447.974L1552.99,447.974L1534.419,424.272L1532.343,426.348L1532.343,447.974L1519.367,447.974L1519.367,350.568L1532.343,350.568Z" style="fill:white;fill-rule:nonzero;"/>
                    <path d="M1588.561,391.803L1588.561,424.041C1588.561,433.345 1592.233,437.997 1599.576,437.997C1606.92,437.997 1610.591,433.345 1610.591,424.041L1610.591,391.803L1623.567,391.803L1623.567,424.329C1623.567,428.828 1623.01,432.711 1621.895,435.979C1620.818,438.901 1618.954,441.534 1616.301,443.88C1611.918,447.686 1606.343,449.589 1599.576,449.589C1592.848,449.589 1587.292,447.686 1582.909,443.88C1580.218,441.534 1578.315,438.901 1577.2,435.979C1576.123,433.364 1575.585,429.481 1575.585,424.329L1575.585,391.803L1588.561,391.803Z" style="fill:white;fill-rule:nonzero;"/>
                    <path d="M1634.631,391.803L1647.607,391.803L1647.607,396.82C1649.991,394.321 1652.105,392.61 1653.951,391.687C1655.835,390.726 1658.065,390.246 1660.641,390.246C1664.062,390.246 1667.638,391.361 1671.367,393.591L1665.427,405.471C1662.967,403.702 1660.564,402.818 1658.218,402.818C1651.144,402.818 1647.607,408.162 1647.607,418.85L1647.607,447.974L1634.631,447.974L1634.631,391.803Z" style="fill:white;fill-rule:nonzero;"/>
                    <path d="M1698.75,437.536L1673.49,391.803L1688.542,391.803L1705.728,424.099L1721.76,391.803L1736.409,391.803L1691.656,478.54L1676.835,478.54L1698.75,437.536Z" style="fill:white;fill-rule:nonzero;"/>
                </g>
                <g transform="matrix(0.207762,0,0,0.200922,839.216191,952.103866)">
                    <path d="M1196.938,403.914L1196.938,447.974L1183.904,447.974L1183.904,403.914L1179.291,403.914L1179.291,391.803L1183.904,391.803L1183.904,370.118C1183.904,363.044 1185.135,358.046 1187.595,355.124C1190.979,351.049 1195.9,349.011 1202.359,349.011C1204.666,349.011 1207.569,349.684 1211.067,351.029L1211.067,364.294L1209.741,363.602C1206.934,362.179 1204.627,361.468 1202.82,361.468C1200.513,361.468 1198.956,362.294 1198.149,363.948C1197.342,365.562 1196.938,368.677 1196.938,373.29L1196.938,391.803L1211.067,391.803L1211.067,403.914L1196.938,403.914Z" style="fill:white;fill-rule:nonzero;"/>
                    <path d="M1229.769,391.803L1229.769,424.041C1229.769,433.345 1233.441,437.997 1240.784,437.997C1248.127,437.997 1251.799,433.345 1251.799,424.041L1251.799,391.803L1264.775,391.803L1264.775,424.329C1264.775,428.828 1264.218,432.711 1263.103,435.979C1262.026,438.901 1260.161,441.534 1257.509,443.88C1253.126,447.686 1247.551,449.589 1240.784,449.589C1234.056,449.589 1228.5,447.686 1224.117,443.88C1221.426,441.534 1219.523,438.901 1218.408,435.979C1217.331,433.364 1216.793,429.481 1216.793,424.329L1216.793,391.803L1229.769,391.803Z" style="fill:white;fill-rule:nonzero;"/>
                    <path d="M1275.839,391.803L1288.815,391.803L1288.815,396.82C1291.198,394.321 1293.313,392.61 1295.159,391.687C1297.042,390.726 1299.272,390.246 1301.848,390.246C1305.27,390.246 1308.846,391.361 1312.575,393.591L1306.635,405.471C1304.174,403.702 1301.771,402.818 1299.426,402.818C1292.352,402.818 1288.815,408.162 1288.815,418.85L1288.815,447.974L1275.839,447.974L1275.839,391.803Z" style="fill:white;fill-rule:nonzero;"/>
                    <path d="M1334.709,403.914L1334.709,447.974L1321.733,447.974L1321.733,403.914L1316.197,403.914L1316.197,391.803L1321.733,391.803L1321.733,371.214L1334.709,371.214L1334.709,391.803L1344.802,391.803L1344.802,403.914L1334.709,403.914Z" style="fill:white;fill-rule:nonzero;"/>
                    <path d="M1348.827,419.485C1348.827,411.372 1351.73,404.471 1357.536,398.781C1363.341,393.091 1370.415,390.246 1378.758,390.246C1387.14,390.246 1394.253,393.11 1400.097,398.839C1405.864,404.567 1408.747,411.603 1408.747,419.946C1408.747,428.366 1405.845,435.421 1400.039,441.111C1394.195,446.763 1387.025,449.589 1378.528,449.589C1370.108,449.589 1363.053,446.706 1357.363,440.938C1351.672,435.248 1348.827,428.097 1348.827,419.485ZM1362.092,419.716C1362.092,425.329 1363.591,429.77 1366.59,433.038C1369.666,436.344 1373.722,437.997 1378.758,437.997C1383.833,437.997 1387.89,436.363 1390.927,433.095C1393.964,429.827 1395.483,425.463 1395.483,420.004C1395.483,414.544 1393.964,410.181 1390.927,406.913C1387.851,403.606 1383.795,401.953 1378.758,401.953C1373.799,401.953 1369.781,403.606 1366.705,406.913C1363.629,410.219 1362.092,414.487 1362.092,419.716Z" style="fill:white;fill-rule:nonzero;"/>
                    <path d="M1431.315,350.568L1431.315,409.969L1449.597,391.803L1467.014,391.803L1442.619,415.39L1468.801,447.974L1451.961,447.974L1433.391,424.272L1431.315,426.348L1431.315,447.974L1418.339,447.974L1418.339,350.568L1431.315,350.568Z" style="fill:white;fill-rule:nonzero;"/>
                    <path d="M1487.533,391.803L1487.533,424.041C1487.533,433.345 1491.205,437.997 1498.548,437.997C1505.892,437.997 1509.563,433.345 1509.563,424.041L1509.563,391.803L1522.539,391.803L1522.539,424.329C1522.539,428.828 1521.982,432.711 1520.867,435.979C1519.79,438.901 1517.926,441.534 1515.273,443.88C1510.89,447.686 1505.315,449.589 1498.548,449.589C1491.82,449.589 1486.264,447.686 1481.881,443.88C1479.19,441.534 1477.287,438.901 1476.172,435.979C1475.095,433.364 1474.557,429.481 1474.557,424.329L1474.557,391.803L1487.533,391.803Z" style="fill:white;fill-rule:nonzero;"/>
                    <path d="M1533.603,391.803L1546.579,391.803L1546.579,396.82C1548.963,394.321 1551.077,392.61 1552.923,391.687C1554.807,390.726 1557.036,390.246 1559.612,390.246C1563.034,390.246 1566.61,391.361 1570.339,393.591L1564.399,405.471C1561.939,403.702 1559.536,402.818 1557.19,402.818C1550.116,402.818 1546.579,408.162 1546.579,418.85L1546.579,447.974L1533.603,447.974L1533.603,391.803Z" style="fill:white;fill-rule:nonzero;"/>
                    <path d="M1597.721,437.536L1572.462,391.803L1587.514,391.803L1604.7,424.099L1620.732,391.803L1635.381,391.803L1590.628,478.54L1575.806,478.54L1597.721,437.536Z" style="fill:white;fill-rule:nonzero;"/>
                </g>
                <g transform="matrix(1.117819,0,0,1.081018,7.115413,-254.978931)">
                    <path d="M1023.478,720.957C1023.426,725.605 1023.214,738.013 1022.348,758.861C1021.831,771.292 1020.455,782.518 1019.444,789.471C1030.897,790.917 1057.648,794.22 1100.783,799.134C1102.292,782.998 1103.686,755.791 1103.364,741.81L1059.45,745.317L1058.416,761.195C1066.277,759.463 1072.834,754.862 1073.223,754.654C1078.354,751.906 1084.75,753.842 1087.497,758.972C1090.245,764.103 1088.31,770.5 1083.179,773.247C1082.361,773.686 1063.435,785.174 1046.251,782.427L1043.506,781.6L1040.576,779.636L1038.145,776.284C1037.746,775.443 1037.283,774.18 1037.028,772.476C1036.046,765.928 1039.034,734.474 1039.034,734.474C1039.53,729.598 1043.321,725.707 1048.182,725.083C1048.182,725.083 1087.81,720.031 1105.184,720.098C1110.546,720.118 1114.485,720.87 1116.336,721.654L1119.099,723.256L1121.382,725.601L1123.302,729.674C1123.79,731.423 1124.238,734.964 1124.377,739.762C1124.914,758.225 1122.411,800.59 1120.412,812.535C1119.486,818.064 1114.397,821.903 1108.827,821.273C1055.773,815.278 1028.883,812.641 1016.07,810.701C1008.273,809.52 1004.27,808.042 1002.464,806.922L999.205,803.805L997.888,801.213L997.279,798.604C997.14,797.471 997.135,795.582 997.48,792.954C998.194,787.511 1000.532,775.873 1001.275,757.985C1002.327,732.662 1001.897,721.828 1002.52,716.657C1003.004,712.648 1004.113,710.214 1005.389,708.374C1006.924,706.16 1008.866,704.528 1011.899,703.094C1045.65,687.139 1069.254,679.752 1073.419,678.139C1078.846,676.036 1084.959,678.736 1087.062,684.163C1089.164,689.591 1086.464,695.704 1081.037,697.806C1077.073,699.341 1055.085,706.2 1023.478,720.957Z" style="fill:white;fill-opacity:0.5;"/>
                </g>
            </g>
        </g>
    </g>
</svg>
