<?xml version="1.0" encoding="UTF-8" standalone="no"?>
<!DOCTYPE svg PUBLIC "-//W3C//DTD SVG 1.1//EN" "http://www.w3.org/Graphics/SVG/1.1/DTD/svg11.dtd">
<svg width="100%" height="100%" viewBox="0 0 512 512" version="1.1" xmlns="http://www.w3.org/2000/svg" xmlns:xlink="http://www.w3.org/1999/xlink" xml:space="preserve" xmlns:serif="http://www.serif.com/" style="fill-rule:evenodd;clip-rule:evenodd;stroke-linejoin:round;stroke-miterlimit:2;">
    <g transform="matrix(1,0,0,1,-3372,-562)">
        <rect id="crepe" x="3372" y="562" width="512" height="512" style="fill:none;"/>
        <clipPath id="_clip1">
            <rect id="crepe1" serif:id="crepe" x="3372" y="562" width="512" height="512"/>
        </clipPath>
        <g clip-path="url(#_clip1)">
            <g transform="matrix(1,0,0,1,561.5191,0)">
                <rect x="2810.001" y="562" width="511.999" height="512" style="fill:white;"/>
            </g>
            <g transform="matrix(3.002407,0,0,3.002407,3480.521768,670.191503)">
                <path d="M88.18,4.04C84.43,1.49 79.91,0 75.07,0C63.55,0 53.89,8.44 51.95,19.43C42.79,13.03 30.39,13.93 22.16,22.16C13.81,30.51 12.99,43.43 19.94,52.19C8.7,53.91 0,63.7 0,75.4C0,82.3 2.88,88.3 7.47,92.51C11.79,96.47 17.56,98.46 23.42,98.46L93.63,98.46C96.18,98.46 98.24,96.39 98.24,93.85L98.24,23.71C98.24,15.92 94.62,8.42 88.18,4.04ZM55.53,61.83C55.53,65.5 52.52,68.47 48.83,68.4C45.21,68.33 42.38,65.23 42.38,61.61L42.38,54.27C42.38,50.64 45.23,47.53 48.86,47.48C51.14,47.45 53.16,48.58 54.36,50.32C54.93,51.14 54.31,52.27 53.31,52.27L51.45,52.27C50.2,52.27 49.09,53.18 48.97,54.43C48.83,55.86 49.95,57.06 51.35,57.06L53.12,57.06C54.45,57.06 55.54,58.14 55.54,59.48L55.54,61.85L55.53,61.83ZM75.86,61.83C75.86,65.5 72.85,68.47 69.16,68.4C65.54,68.33 62.71,65.23 62.71,61.61L62.71,54.27C62.71,50.64 65.56,47.53 69.19,47.48C71.47,47.45 73.49,48.58 74.69,50.32C75.26,51.14 74.64,52.27 73.64,52.27L71.78,52.27C70.53,52.27 69.42,53.18 69.3,54.43C69.16,55.86 70.28,57.06 71.68,57.06L73.45,57.06C74.78,57.06 75.87,58.14 75.87,59.48L75.87,61.85L75.86,61.83Z" style="fill-rule:nonzero;"/>
            </g>
        </g>
    </g>
</svg>
