<?xml version="1.0" encoding="UTF-8" standalone="no"?>
<!DOCTYPE svg PUBLIC "-//W3C//DTD SVG 1.1//EN" "http://www.w3.org/Graphics/SVG/1.1/DTD/svg11.dtd">
<svg width="100%" height="100%" viewBox="0 0 512 512" version="1.1" xmlns="http://www.w3.org/2000/svg" xmlns:xlink="http://www.w3.org/1999/xlink" xml:space="preserve" xmlns:serif="http://www.serif.com/" style="fill-rule:evenodd;clip-rule:evenodd;stroke-linejoin:round;stroke-miterlimit:2;">
    <g transform="matrix(1,0,0,1,-1686,-562)">
        <rect id="Artboard6" x="1686" y="562" width="512" height="512" style="fill:none;"/>
        <g id="Artboard61" serif:id="Artboard6">
            <g transform="matrix(1,0,0,1,562,562)">
                <path d="M1485.952,0C1568.821,0 1636,67.179 1636,150.048L1636,361.952C1636,444.821 1568.821,512 1485.952,512L1274.048,512C1191.179,512 1124,444.821 1124,361.952L1124,150.048C1124,67.179 1191.179,0 1274.048,0L1485.952,0Z" style="fill:rgb(74,170,230);"/>
            </g>
            <g transform="matrix(31.376357,0,0,31.376357,-58174.437071,-25600.262277)">
                <path d="M1918.511,839.67L1918.151,842.658C1918.127,842.85 1918.115,843.042 1918.115,843.234C1918.115,843.314 1918.135,843.378 1918.175,843.426C1918.215,843.474 1918.263,843.498 1918.319,843.498C1918.503,843.498 1918.673,843.438 1918.829,843.318C1918.985,843.198 1919.121,843.038 1919.237,842.838C1919.353,842.638 1919.443,842.41 1919.507,842.154C1919.571,841.898 1919.603,841.634 1919.603,841.362C1919.603,840.906 1919.515,840.49 1919.339,840.114C1919.163,839.738 1918.921,839.418 1918.613,839.154C1918.305,838.89 1917.943,838.686 1917.527,838.542C1917.111,838.398 1916.663,838.326 1916.183,838.326C1915.631,838.326 1915.121,838.42 1914.653,838.608C1914.185,838.796 1913.781,839.052 1913.441,839.376C1913.101,839.7 1912.835,840.086 1912.643,840.534C1912.451,840.982 1912.355,841.462 1912.355,841.974C1912.355,842.55 1912.459,843.066 1912.667,843.522C1912.875,843.978 1913.157,844.362 1913.513,844.674C1913.869,844.986 1914.285,845.224 1914.761,845.388C1915.237,845.552 1915.743,845.634 1916.279,845.634C1916.591,845.634 1916.867,845.624 1917.107,845.604C1917.347,845.584 1917.573,845.546 1917.785,845.49C1917.997,845.434 1918.201,845.358 1918.397,845.262C1918.593,845.166 1918.807,845.042 1919.039,844.89L1919.555,845.898C1919.067,846.202 1918.557,846.428 1918.025,846.576C1917.493,846.724 1916.915,846.798 1916.291,846.798C1915.507,846.798 1914.801,846.67 1914.173,846.414C1913.545,846.158 1913.011,845.81 1912.571,845.37C1912.131,844.93 1911.791,844.418 1911.551,843.834C1911.311,843.25 1911.191,842.63 1911.191,841.974C1911.191,841.294 1911.319,840.662 1911.575,840.078C1911.831,839.494 1912.183,838.986 1912.631,838.554C1913.079,838.122 1913.605,837.782 1914.209,837.534C1914.813,837.286 1915.467,837.162 1916.171,837.162C1916.819,837.162 1917.423,837.27 1917.983,837.486C1918.543,837.702 1919.029,837.998 1919.441,838.374C1919.853,838.75 1920.177,839.192 1920.413,839.7C1920.649,840.208 1920.767,840.75 1920.767,841.326C1920.767,841.814 1920.705,842.26 1920.581,842.664C1920.457,843.068 1920.281,843.416 1920.053,843.708C1919.825,844 1919.551,844.226 1919.231,844.386C1918.911,844.546 1918.551,844.626 1918.151,844.626C1917.935,844.626 1917.741,844.57 1917.569,844.458C1917.397,844.346 1917.247,844.194 1917.119,844.002C1916.855,844.266 1916.603,844.432 1916.363,844.5C1916.123,844.568 1915.899,844.602 1915.691,844.602C1915.435,844.602 1915.169,844.54 1914.893,844.416C1914.617,844.292 1914.365,844.118 1914.137,843.894C1913.909,843.67 1913.719,843.402 1913.567,843.09C1913.415,842.778 1913.339,842.434 1913.339,842.058C1913.339,841.69 1913.411,841.352 1913.555,841.044C1913.699,840.736 1913.887,840.472 1914.119,840.252C1914.351,840.032 1914.617,839.862 1914.917,839.742C1915.217,839.622 1915.523,839.562 1915.835,839.562C1916.179,839.562 1916.479,839.628 1916.735,839.76C1916.991,839.892 1917.179,840.066 1917.299,840.282L1917.407,839.67L1918.511,839.67ZM1914.647,842.046C1914.647,842.206 1914.679,842.362 1914.743,842.514C1914.807,842.666 1914.893,842.798 1915.001,842.91C1915.109,843.022 1915.237,843.112 1915.385,843.18C1915.533,843.248 1915.687,843.282 1915.847,843.282C1916.007,843.282 1916.161,843.248 1916.309,843.18C1916.457,843.112 1916.585,843.022 1916.693,842.91C1916.801,842.798 1916.887,842.666 1916.951,842.514C1917.015,842.362 1917.047,842.206 1917.047,842.046C1917.047,841.886 1917.015,841.732 1916.951,841.584C1916.887,841.436 1916.801,841.304 1916.693,841.188C1916.585,841.072 1916.457,840.98 1916.309,840.912C1916.161,840.844 1916.007,840.81 1915.847,840.81C1915.687,840.81 1915.533,840.844 1915.385,840.912C1915.237,840.98 1915.109,841.072 1915.001,841.188C1914.893,841.304 1914.807,841.436 1914.743,841.584C1914.679,841.732 1914.647,841.886 1914.647,842.046Z" style="fill:white;fill-rule:nonzero;"/>
            </g>
        </g>
    </g>
</svg>
