<?xml version="1.0" encoding="UTF-8" standalone="no"?>
<!DOCTYPE svg PUBLIC "-//W3C//DTD SVG 1.1//EN" "http://www.w3.org/Graphics/SVG/1.1/DTD/svg11.dtd">
<svg width="100%" height="100%" viewBox="0 0 512 512" version="1.1" xmlns="http://www.w3.org/2000/svg" xmlns:xlink="http://www.w3.org/1999/xlink" xml:space="preserve" xmlns:serif="http://www.serif.com/" style="fill-rule:evenodd;clip-rule:evenodd;stroke-linejoin:round;stroke-miterlimit:2;">
    <g transform="matrix(1,0,0,1,-2810,-562)">
        <rect id="Furpic" x="2810" y="562" width="512" height="512" style="fill:none;"/>
        <g id="Furpic1" serif:id="Furpic">
            <rect x="2810.001" y="562" width="511.999" height="512" style="fill:white;"/>
            <g id="Background" transform="matrix(0.691117,0,0,0.691117,2889.127991,643.225601)">
                <path d="M323,265.524C321.414,299.846 305.334,324.765 307.326,350.513C310.868,396.296 330.668,434.584 286.418,477.412C266.012,497.161 206.621,525.254 165.951,451.255C133.115,391.513 136.747,385.584 84.6,358.313C51.213,340.853 8.514,323.897 10.129,273.48C11.152,241.56 45.937,191.017 104.441,197.903C147.469,202.967 149.198,211.921 185.381,202.015C236.746,187.953 274.649,175.026 312.262,225.67C326.06,244.249 323.06,263.987 323,265.524Z" style="fill-opacity:1;"/>
                <path d="M435.515,129.009C494.806,131.379 518.893,196.802 462.168,249.129C424.206,284.148 354.643,289.646 335.346,239.556C317.002,191.939 373.184,126.894 435.515,129.009Z" style="fill-opacity:1;"/>
                <path d="M182.499,7.014C187.892,7.171 224.614,8.239 237.087,46.631C256.979,107.859 176.194,191.182 116.777,158.011C52.499,122.127 106.777,6.731 182.499,7.014Z" style="fill-opacity:1;"/>
                <path d="M240.012,131.521C237.863,63.667 292.553,23.007 323.543,19.968C385.602,13.882 401.012,89.165 362.062,142.171C312.117,210.141 244.24,189.234 240.012,131.521Z" style="fill-opacity:1;"/>
                <path d="M448.541,277.025C514.374,286.062 521.383,353.379 460.238,394.104C409.291,428.036 340.02,418.761 332.378,367.516C326.463,327.855 377.279,271.974 448.541,277.025Z" style="fill-opacity:1;"/>
            </g>
        </g>
    </g>
</svg>
