<?xml version="1.0" encoding="UTF-8" standalone="no"?>
<!DOCTYPE svg PUBLIC "-//W3C//DTD SVG 1.1//EN" "http://www.w3.org/Graphics/SVG/1.1/DTD/svg11.dtd">
<svg width="100%" height="100%" viewBox="0 0 512 512" version="1.1" xmlns="http://www.w3.org/2000/svg" xmlns:xlink="http://www.w3.org/1999/xlink" xml:space="preserve" xmlns:serif="http://www.serif.com/" style="fill-rule:evenodd;clip-rule:evenodd;stroke-linejoin:round;stroke-miterlimit:2;">
    <g transform="matrix(1,0,0,1,-2248,-562)">
        <rect id="Artboard7" x="2248" y="562" width="512" height="512" style="fill:none;"/>
        <clipPath id="_clip1">
            <rect id="Artboard71" serif:id="Artboard7" x="2248" y="562" width="512" height="512"/>
        </clipPath>
        <g clip-path="url(#_clip1)">
            <g transform="matrix(1,0,0,1,1124.000515,562)">
                <path d="M1485.952,0C1568.821,0 1636,67.179 1636,150.048L1636,361.952C1636,444.821 1568.821,512 1485.952,512L1274.048,512C1191.179,512 1124,444.821 1124,361.952L1124,150.048C1124,67.179 1191.179,0 1274.048,0L1485.952,0Z" style="fill:rgb(248,224,73);"/>
            </g>
            <g transform="matrix(2.57465,0,0,2.57465,2504.000515,989.90164)">
                <path d="M0,-131.908C-39.503,-131.908 -71.526,-106.594 -71.526,-75.363C-71.526,-55.037 -57.96,-37.22 -37.593,-27.253C-39.089,-21.67 -43.012,-7.021 -43.795,-3.889C-44.767,0 -42.374,-0.05 -40.802,-1.091C-39.57,-1.913 -21.204,-14.405 -13.278,-19.795C-8.974,-19.156 -4.537,-18.819 0,-18.819C39.503,-18.819 71.526,-44.132 71.526,-75.363C71.526,-106.594 39.503,-131.908 0,-131.908" style="fill:rgb(55,28,29);fill-rule:nonzero;"/>
            </g>
            <g transform="matrix(2.57465,0,0,2.57465,2375.527809,824.059696)">
                <path d="M0,-21.359L7.362,-21.359C7.362,-21.359 7.409,-1.137 7.369,3.574C7.379,7.013 15.027,7.06 15.017,3.624L15.051,-21.095C15.051,-21.095 17.516,-21.079 22.376,-21.075C26.953,-21.075 26.957,-28.272 22.381,-28.277C17.224,-28.277 -0.01,-28.419 -0.01,-28.419C-4.33,-28.412 -4.317,-21.359 0,-21.359" style="fill:rgb(248,224,73);fill-rule:nonzero;"/>
            </g>
            <g transform="matrix(2.57465,0,0,2.57465,2246.535539,516.199041)">
                <clipPath id="_clip2">
                    <path d="M50.101,98.215L57.462,98.215C57.462,98.215 57.509,118.437 57.469,123.148C57.479,126.587 65.128,126.633 65.119,123.198L65.152,98.479C65.152,98.479 67.617,98.495 72.477,98.499C77.054,98.499 77.057,91.302 72.482,91.297C67.325,91.297 50.091,91.155 50.091,91.155C45.77,91.162 45.784,98.215 50.101,98.215Z" clip-rule="nonzero"/>
                </clipPath>
                <g clip-path="url(#_clip2)">
                    <rect x="45.771" y="91.155" width="31.287" height="35.479" style="fill:rgb(248,224,73);"/>
                </g>
            </g>
            <g transform="matrix(2.57465,0,0,2.57465,2454.430268,839.794925)">
                <path d="M0,-32.175C-1.811,-28.185 -8.355,-9.345 -10.527,-4.347C-12.099,-0.735 -5.325,2.21 -3.755,-1.401L-2.28,-6.552L11.191,-6.552C11.191,-6.552 10.727,-6.342 12.517,-1.619C13.965,2.2 20.96,-0.447 19.51,-4.27C17.441,-9.732 10.286,-29.391 8.981,-32.175C8.38,-33.464 6.221,-34.385 4.133,-34.385C2.404,-34.385 0.718,-33.754 0,-32.175M4.591,-26.162L8.687,-13.326L0.148,-13.326L4.591,-26.162Z" style="fill:rgb(248,224,73);fill-rule:nonzero;"/>
            </g>
            <g transform="matrix(2.57465,0,0,2.57465,2246.535539,519.818998)">
                <clipPath id="_clip3">
                    <path d="M80.747,92.105C78.935,96.094 72.391,114.934 70.22,119.933C68.648,123.544 75.422,126.489 76.992,122.878L78.467,117.727L91.938,117.727C91.938,117.727 91.474,117.937 93.263,122.66C94.712,126.479 101.707,123.832 100.256,120.009C98.188,114.547 91.033,94.888 89.727,92.105C89.127,90.816 86.968,89.894 84.88,89.894C83.15,89.894 81.464,90.525 80.747,92.105ZM85.337,98.118L89.434,110.953L80.896,110.953L85.337,98.118Z" clip-rule="nonzero"/>
                </clipPath>
                <g clip-path="url(#_clip3)">
                    <rect x="68.647" y="89.894" width="33.059" height="36.595" style="fill:rgb(248,224,73);"/>
                </g>
            </g>
            <g transform="matrix(2.57465,0,0,2.57465,2511.300934,831.460011)">
                <path d="M0,-27.759C0.013,-21.355 0.037,-0.719 0.037,-0.719C0.037,-0.719 -0.554,3.382 2.961,3.382C6.479,3.382 14.283,3.344 17.743,3.344C21.202,3.344 21.184,-4.016 17.725,-4.016C14.263,-4.016 7.949,-4.053 7.949,-4.053C7.949,-4.053 7.979,-23.142 7.969,-27.778C7.963,-30.019 5.976,-31.141 3.988,-31.141C1.991,-31.141 -0.003,-30.013 0,-27.759" style="fill:rgb(248,224,73);fill-rule:nonzero;"/>
            </g>
            <g transform="matrix(2.57465,0,0,2.57465,2246.535539,514.520369)">
                <clipPath id="_clip4">
                    <path d="M102.836,95.341C102.848,101.744 102.872,122.381 102.872,122.381C102.872,122.381 102.281,126.483 105.797,126.483C109.314,126.483 117.118,126.444 120.578,126.444C124.038,126.444 124.019,119.084 120.56,119.084C117.098,119.084 110.785,119.047 110.785,119.047C110.785,119.047 110.814,99.959 110.804,95.323C110.798,93.081 108.812,91.959 106.824,91.959C104.827,91.959 102.832,93.087 102.836,95.341Z" clip-rule="nonzero"/>
                </clipPath>
                <g clip-path="url(#_clip4)">
                    <rect x="102.281" y="91.959" width="21.757" height="34.523" style="fill:rgb(248,224,73);"/>
                </g>
            </g>
            <g transform="matrix(2.57465,0,0,2.57465,2568.265575,835.92085)">
                <path d="M0,-30.51C0.077,-27.702 -0.09,-2.311 -0.088,-0.43C-0.087,2.54 7.472,2.533 7.47,-0.435C7.469,-3.882 7.47,-10.425 7.47,-10.425L9.691,-12.204L19.395,1.039C21.358,3.626 27.532,-1.05 25.572,-3.637L15.264,-17.212C15.264,-17.212 22.26,-24.777 25.018,-27.518C26.627,-29.116 21.646,-34.136 20.036,-32.533C18.477,-30.987 7.519,-20.017 7.519,-20.017C7.519,-20.017 7.617,-26.906 7.515,-30.714C7.477,-32.159 5.703,-32.859 3.888,-32.859C1.947,-32.859 -0.04,-32.057 0,-30.51" style="fill:rgb(248,224,73);fill-rule:nonzero;"/>
            </g>
            <g transform="matrix(2.57465,0,0,2.57465,2246.535539,516.361243)">
                <clipPath id="_clip5">
                    <path d="M124.961,93.608C125.038,96.416 124.87,121.807 124.872,123.688C124.874,126.658 132.432,126.65 132.431,123.682C132.43,120.235 132.431,113.693 132.431,113.693L134.652,111.914L144.355,125.156C146.319,127.744 152.492,123.068 150.532,120.481L140.225,106.905C140.225,106.905 147.22,99.34 149.979,96.6C151.588,95.002 146.606,89.982 144.997,91.585C143.437,93.13 132.48,104.101 132.48,104.101C132.48,104.101 132.578,97.212 132.476,93.404C132.438,91.958 130.663,91.259 128.848,91.259C126.907,91.259 124.921,92.06 124.961,93.608Z" clip-rule="nonzero"/>
                </clipPath>
                <g clip-path="url(#_clip5)">
                    <rect x="124.871" y="89.982" width="27.622" height="37.762" style="fill:rgb(248,224,73);"/>
                </g>
            </g>
        </g>
    </g>
</svg>
