<?xml version="1.0" encoding="UTF-8" standalone="no"?>
<!DOCTYPE svg PUBLIC "-//W3C//DTD SVG 1.1//EN" "http://www.w3.org/Graphics/SVG/1.1/DTD/svg11.dtd">
<svg width="100%" height="100%" viewBox="0 0 512 512" version="1.1" xmlns="http://www.w3.org/2000/svg" xmlns:xlink="http://www.w3.org/1999/xlink" xml:space="preserve" xmlns:serif="http://www.serif.com/" style="fill-rule:evenodd;clip-rule:evenodd;stroke-linejoin:round;stroke-miterlimit:2;">
    <g transform="matrix(1,0,0,1,-562,0)">
        <rect id="Artboard2" x="562" y="0" width="512" height="512" style="fill:none;"/>
        <g id="Artboard21" serif:id="Artboard2">
            <g transform="matrix(3.523615,0,0,3.523615,-2919.900266,-2384.538251)">
                <path d="M1023.478,720.957C1023.426,725.605 1023.214,738.013 1022.348,758.861C1021.831,771.292 1020.455,782.518 1019.444,789.471C1030.897,790.917 1057.648,794.22 1100.783,799.134C1102.292,782.998 1103.686,755.791 1103.364,741.81L1059.45,745.317L1058.416,761.195C1066.277,759.463 1072.834,754.862 1073.223,754.654C1078.354,751.906 1084.75,753.842 1087.497,758.972C1090.245,764.103 1088.31,770.5 1083.179,773.247C1082.361,773.686 1063.435,785.174 1046.251,782.427C1043.894,782.05 1038.183,780.177 1037.028,772.476C1036.046,765.928 1039.034,734.474 1039.034,734.474C1039.53,729.598 1043.321,725.707 1048.182,725.083C1048.182,725.083 1087.81,720.031 1105.184,720.098C1110.546,720.118 1114.485,720.87 1116.336,721.654C1118.838,722.712 1120.389,724.232 1121.382,725.601C1122.014,726.474 1122.775,727.79 1123.302,729.674C1123.79,731.423 1124.238,734.964 1124.377,739.762C1124.914,758.225 1122.411,800.59 1120.412,812.535C1119.486,818.064 1114.397,821.903 1108.827,821.273C1055.773,815.278 1028.883,812.641 1016.07,810.701C1008.273,809.52 1004.27,808.042 1002.464,806.922C1000.417,805.653 997.859,803.337 997.279,798.604C997.14,797.471 997.135,795.582 997.48,792.954C998.194,787.511 1000.532,775.873 1001.275,757.985C1002.327,732.662 1001.897,721.828 1002.52,716.657C1003.004,712.648 1004.113,710.214 1005.389,708.374C1006.924,706.16 1008.866,704.528 1011.899,703.094C1045.65,687.139 1069.254,679.752 1073.419,678.139C1078.846,676.036 1084.959,678.736 1087.062,684.163C1089.164,689.591 1086.464,695.704 1081.037,697.806C1077.073,699.341 1055.085,706.2 1023.478,720.957Z" style="fill:rgb(250,247,234);"/>
            </g>
        </g>
    </g>
</svg>
