<?xml version="1.0" encoding="UTF-8" standalone="no"?><!DOCTYPE svg PUBLIC "-//W3C//DTD SVG 1.1//EN" "http://www.w3.org/Graphics/SVG/1.1/DTD/svg11.dtd"><svg width="100%" height="100%" viewBox="0 0 512 512" version="1.1" xmlns="http://www.w3.org/2000/svg" xmlns:xlink="http://www.w3.org/1999/xlink" xml:space="preserve" xmlns:serif="http://www.serif.com/" style="fill-rule:evenodd;clip-rule:evenodd;stroke-linejoin:round;stroke-miterlimit:2;"><rect id="Artboard3" x="0" y="0" width="512" height="512" style="fill:none;"/><g id="Artboard31" serif:id="Artboard3"><path d="M124.443,155.836c-0.182,16.379 -0.93,60.099 -3.982,133.559c-1.82,43.801 -6.67,83.357 -10.232,107.858c40.356,5.094 134.615,16.734 286.608,34.049c5.318,-56.859 10.227,-152.725 9.095,-201.989l-154.738,12.358l-3.641,55.947c27.697,-6.102 50.801,-22.313 52.171,-23.047c18.08,-9.681 40.618,-2.863 50.299,15.217c9.681,18.08 2.863,40.618 -15.217,50.299c-2.883,1.544 -69.571,42.024 -130.121,32.344c-8.303,-1.327 -28.427,-7.927 -32.497,-35.063c-3.461,-23.072 7.068,-133.905 7.068,-133.905c1.751,-17.18 15.107,-30.89 32.235,-33.09c0,0 139.634,-17.8 200.853,-17.565c18.894,0.072 32.773,2.723 39.296,5.483c8.814,3.73 14.279,9.084 17.778,13.909c2.229,3.075 4.911,7.713 6.766,14.352c1.721,6.162 3.298,18.638 3.79,35.544c1.891,65.057 -6.929,214.334 -13.974,256.425c-3.261,19.482 -21.193,33.007 -40.821,30.79c-186.942,-21.123 -281.689,-30.416 -326.839,-37.253c-27.475,-4.16 -41.578,-9.37 -47.942,-13.315c-7.213,-4.472 -16.228,-12.633 -18.27,-29.309c-0.489,-3.994 -0.506,-10.647 0.708,-19.91c2.514,-19.177 10.752,-60.186 13.371,-123.215c3.708,-89.229 2.191,-127.406 4.388,-145.623c1.704,-14.126 5.611,-22.703 10.108,-29.188c5.411,-7.802 12.253,-13.553 22.941,-18.605c118.925,-56.219 202.094,-82.247 216.771,-87.932c19.124,-7.407 40.664,2.105 48.072,21.229c7.407,19.124 -2.105,40.664 -21.229,48.072c-13.966,5.41 -91.445,29.577 -202.815,81.574Z"/></g></svg>