<?xml version="1.0" encoding="UTF-8" standalone="no"?><!DOCTYPE svg PUBLIC "-//W3C//DTD SVG 1.1//EN" "http://www.w3.org/Graphics/SVG/1.1/DTD/svg11.dtd"><svg width="100%" height="100%" viewBox="0 0 313 74" version="1.1" xmlns="http://www.w3.org/2000/svg" xmlns:xlink="http://www.w3.org/1999/xlink" xml:space="preserve" xmlns:serif="http://www.serif.com/" style="fill-rule:evenodd;clip-rule:evenodd;stroke-linejoin:round;stroke-miterlimit:2;"><rect id="Artboard6" x="0" y="0" width="313" height="73.147" style="fill:none;"/><clipPath id="_clip1"><rect x="0" y="0" width="313" height="73.147"/></clipPath><g clip-path="url(#_clip1)"><g><path d="M13.361,22.158c-0.026,2.363 -0.134,8.669 -0.574,19.265c-0.263,6.318 -0.962,12.024 -1.476,15.558c5.821,0.735 19.417,2.414 41.342,4.911c0.767,-8.202 1.475,-22.03 1.312,-29.136l-22.32,1.783l-0.525,8.07c3.995,-0.88 7.328,-3.219 7.525,-3.324c2.608,-1.396 5.859,-0.413 7.255,2.195c1.396,2.608 0.413,5.859 -2.195,7.255c-0.416,0.223 -10.035,6.062 -18.769,4.665c-1.198,-0.191 -4.1,-1.143 -4.688,-5.058c-0.499,-3.328 1.02,-19.315 1.02,-19.315c0.253,-2.478 2.179,-4.456 4.65,-4.773c0,0 20.141,-2.568 28.972,-2.534c2.725,0.01 4.727,0.393 5.668,0.791c1.271,0.538 2.06,1.31 2.564,2.006c0.322,0.444 0.708,1.113 0.976,2.07c0.248,0.889 0.476,2.688 0.547,5.127c0.273,9.384 -0.999,30.916 -2.016,36.988c-0.47,2.81 -3.057,4.761 -5.888,4.441c-26.965,-3.047 -40.632,-4.387 -47.145,-5.374c-3.963,-0.6 -5.997,-1.352 -6.915,-1.921l-1.656,-1.584c-0.404,-0.589 -0.831,-1.435 -0.979,-2.643c-0.071,-0.576 -0.073,-1.536 0.102,-2.872c0.363,-2.766 1.551,-8.681 1.929,-17.773c0.535,-12.871 0.316,-18.378 0.633,-21.005c0.246,-2.038 0.809,-3.275 1.458,-4.21c0.78,-1.125 1.767,-1.955 3.309,-2.684c17.154,-8.109 29.151,-11.864 31.268,-12.684c2.759,-1.068 5.866,0.304 6.934,3.062c1.068,2.759 -0.304,5.866 -3.062,6.934c-2.015,0.78 -13.19,4.266 -29.255,11.767Z"/><g transform="matrix(77.787786,0,0,77.787786,318.658683,65.932044)"></g><text x="92.374px" y="65.932px" style="font-family:'Futura-Bold', 'Futura', sans-serif;font-weight:700;font-size:77.788px;">T<tspan x="129.479px 197.543px 255.262px " y="65.932px 65.932px 65.932px ">OKU</tspan></text></g></g></svg>