<?xml version="1.0" encoding="UTF-8" standalone="no"?><!DOCTYPE svg PUBLIC "-//W3C//DTD SVG 1.1//EN" "http://www.w3.org/Graphics/SVG/1.1/DTD/svg11.dtd"><svg width="100%" height="100%" viewBox="0 0 524 132" version="1.1" xmlns="http://www.w3.org/2000/svg" xmlns:xlink="http://www.w3.org/1999/xlink" xml:space="preserve" xmlns:serif="http://www.serif.com/" style="fill-rule:evenodd;clip-rule:evenodd;stroke-linejoin:round;stroke-miterlimit:2;"><rect id="Artboard5" x="0" y="0" width="523.975" height="131.78" style="fill:none;"/><g><path d="M251.512,12.244c-0.015,1.304 -0.074,4.784 -0.317,10.632c-0.145,3.487 -0.531,6.636 -0.815,8.586c3.213,0.406 10.716,1.332 22.816,2.711c0.423,-4.526 0.814,-12.158 0.724,-16.08l-12.318,0.984l-0.29,4.454c2.205,-0.486 4.044,-1.776 4.153,-1.835c1.439,-0.771 3.234,-0.228 4.004,1.211c0.771,1.439 0.228,3.234 -1.211,4.004c-0.23,0.123 -5.538,3.345 -10.359,2.575c-0.661,-0.106 -2.263,-0.631 -2.587,-2.791c-0.276,-1.837 0.563,-10.66 0.563,-10.66c0.139,-1.368 1.203,-2.459 2.566,-2.634c0,0 11.116,-1.417 15.989,-1.398c1.504,0.006 2.609,0.217 3.128,0.436c0.702,0.297 1.137,0.723 1.415,1.107c0.177,0.245 0.391,0.614 0.539,1.143c0.137,0.491 0.263,1.484 0.302,2.83c0.151,5.179 -0.552,17.063 -1.112,20.413c-0.26,1.551 -1.687,2.628 -3.25,2.451c-14.882,-1.682 -22.425,-2.421 -26.019,-2.966c-2.187,-0.331 -3.31,-0.746 -3.817,-1.06l-0.914,-0.874c-0.223,-0.325 -0.459,-0.792 -0.54,-1.459c-0.039,-0.318 -0.04,-0.848 0.056,-1.585c0.2,-1.527 0.856,-4.791 1.064,-9.809c0.295,-7.103 0.174,-10.143 0.349,-11.593c0.136,-1.125 0.447,-1.807 0.805,-2.324c0.431,-0.621 0.975,-1.079 1.826,-1.481c9.467,-4.475 16.088,-6.548 17.257,-7c1.522,-0.59 3.237,0.168 3.827,1.69c0.59,1.522 -0.168,3.237 -1.69,3.827c-1.112,0.431 -7.28,2.355 -16.146,6.494Z"/><g transform="matrix(75.61328,0,0,75.61328,526.671723,130.159215)"></g><text x="0.101px" y="130.159px" style="font-family:'Futura-Bold', 'Futura', sans-serif;font-weight:700;font-size:75.613px;">T<tspan x="36.168px 102.33px 158.435px 216.279px 238.207px 283.651px 320.247px 378.092px 433.743px 456.729px " y="130.159px 130.159px 130.159px 130.159px 130.159px 130.159px 130.159px 130.159px 130.159px 130.159px ">OKU STUDIO</tspan></text></g></svg>