<?xml version="1.0" encoding="UTF-8" standalone="no"?>
<!DOCTYPE svg PUBLIC "-//W3C//DTD SVG 1.1//EN" "http://www.w3.org/Graphics/SVG/1.1/DTD/svg11.dtd">
<svg width="100%" height="100%" viewBox="0 0 512 512" version="1.1" xmlns="http://www.w3.org/2000/svg" xmlns:xlink="http://www.w3.org/1999/xlink" xml:space="preserve" xmlns:serif="http://www.serif.com/" style="fill-rule:evenodd;clip-rule:evenodd;stroke-linejoin:round;stroke-miterlimit:2;">
    <g transform="matrix(1,0,0,1,-562,-562)">
        <rect id="Artboard4" x="562" y="562" width="512" height="512" style="fill:none;"/>
        <clipPath id="_clip1">
            <rect id="Artboard41" serif:id="Artboard4" x="562" y="562" width="512" height="512"/>
        </clipPath>
        <g clip-path="url(#_clip1)">
            <g transform="matrix(1,0,0,1,-562,562)">
                <path d="M1485.952,0C1568.821,0 1636,67.179 1636,150.048L1636,361.952C1636,444.821 1568.821,512 1485.952,512L1274.048,512C1191.179,512 1124,444.821 1124,361.952L1124,150.048C1124,67.179 1191.179,0 1274.048,0L1485.952,0Z"/>
            </g>
            <g transform="matrix(0.220442,0,0,0.220442,685.73485,682.828323)">
                <path d="M714.163,519.284L1160.89,0L1055.03,0L667.137,450.887L357.328,0L0,0L468.492,681.821L0,1226.37L105.866,1226.37L515.491,750.218L842.672,1226.37L1200,1226.37L714.137,519.284L714.163,519.284ZM569.165,687.828L521.697,619.934L144.011,79.694L306.615,79.694L611.412,515.685L658.88,583.579L1055.08,1150.3L892.476,1150.3L569.165,687.854L569.165,687.828Z" style="fill:white;fill-rule:nonzero;"/>
            </g>
        </g>
    </g>
</svg>
